<svg xmlns="http://www.w3.org/2000/svg" xmlns:xlink="http://www.w3.org/1999/xlink" width="322" height="251.517" viewBox="0 0 322 251.517">
  <defs>
    <linearGradient id="linear-gradient" x1="0.155" y1="0.951" x2="0.897" y2="-0.119" gradientUnits="objectBoundingBox">
      <stop offset="0.023" stop-color="#827784"/>
      <stop offset="1" stop-color="#46475f"/>
    </linearGradient>
    <linearGradient id="linear-gradient-2" x1="0.406" y1="0.138" x2="0.898" y2="0.819" gradientUnits="objectBoundingBox">
      <stop offset="0.023" stop-color="#9b898d"/>
      <stop offset="0.881" stop-color="#575870"/>
    </linearGradient>
    <clipPath id="clip-path">
      <path id="Path_84" data-name="Path 84" d="M132.121,54.018l48.893-4.428a7.531,7.531,0,0,1,8.217,6.7l12.176,121.042a8.288,8.288,0,0,1-7.559,9.045L146.2,190.705a8.1,8.1,0,0,1-8.835-7.21L125.3,62.913a8.228,8.228,0,0,1,6.821-8.9Z" transform="translate(-125.259 -49.558)"/>
    </clipPath>
  </defs>
  <g id="bookcab" transform="translate(-20.97 -29.29)">
    <g id="Group_18" data-name="Group 18" transform="translate(20.97 29.29)">
      <path id="Path_19" data-name="Path 19" d="M302.962,105.786H268.179c-10.281-.688-13.762-8.4-13.762-8.4v.01C240.447,57.76,202.493,29.18,158.226,29.29a101.315,101.315,0,0,0-71.55,29.677A2.29,2.29,0,0,0,88.3,62.886a15.791,15.791,0,0,1,15.766,15.786h0A15.789,15.789,0,0,1,88.282,94.458H69.355a8.165,8.165,0,0,0-7.8,5.664,101.5,101.5,0,0,0-4.717,27.513,8.26,8.26,0,0,1-6.681,3.879H25.866a4.9,4.9,0,0,0,0,9.793h24.4s4.767-.349,7.748,5.425c7.589,48.425,49.641,85.641,99.861,85.92a101.694,101.694,0,0,0,101.676-90.677v.01c2.314-8.107,12.944-11.009,12.944-11.009h30.455a12.6,12.6,0,0,0,12.595-12.595h0A12.587,12.587,0,0,0,302.962,105.786Z" transform="translate(-20.97 -29.29)" fill="#4361ee" opacity="0.998"/>
      <path id="Path_20" data-name="Path 20" d="M315.392,91.25H269.321A3.151,3.151,0,0,0,266.17,94.4h0a3.152,3.152,0,0,0,3.151,3.151h46.071a3.151,3.151,0,0,0,3.151-3.151h0A3.151,3.151,0,0,0,315.392,91.25Z" transform="translate(-21.653 -29.462)" fill="#4361ee"/>
      <path id="Path_21" data-name="Path 21" d="M282.311,87.162h46.071a3.151,3.151,0,1,0,0-6.3H282.311a3.151,3.151,0,1,0,0,6.3Z" transform="translate(-21.69 -29.433)" fill="#4361ee"/>
      <path id="Path_22" data-name="Path 22" d="M26.241,87.242H72.312a3.151,3.151,0,1,0,0-6.3H26.241a3.151,3.151,0,1,0,0,6.3Z" transform="translate(-20.976 -29.434)" fill="#4361ee"/>
      <path id="Path_23" data-name="Path 23" d="M87.191,87.242h2.673a3.151,3.151,0,1,0,0-6.3H87.191a3.151,3.151,0,1,0,0,6.3Z" transform="translate(-21.146 -29.434)" fill="#4361ee"/>
      <path id="Path_24" data-name="Path 24" d="M50.681,145.77h0a3.151,3.151,0,0,0,0,6.3h0a3.151,3.151,0,0,0,0-6.3Z" transform="translate(-21.044 -29.614)" fill="#4361ee"/>
      <path id="Path_25" data-name="Path 25" d="M329.94,91.25h-4.1A3.151,3.151,0,0,0,322.69,94.4h0a3.151,3.151,0,0,0,3.151,3.151h4.1a3.151,3.151,0,0,0,3.151-3.151h0A3.151,3.151,0,0,0,329.94,91.25Z" transform="translate(-21.811 -29.462)" fill="#4361ee"/>
      <path id="Path_26" data-name="Path 26" d="M340.7,91.25h0A3.151,3.151,0,0,0,337.55,94.4h0a3.151,3.151,0,0,0,3.151,3.151h0a3.151,3.151,0,0,0,3.151-3.151h0A3.145,3.145,0,0,0,340.7,91.25Z" transform="translate(-21.853 -29.462)" fill="#4361ee"/>
    </g>
    <g id="Group_19" data-name="Group 19" transform="translate(71.429 91.418)">
      <path id="Path_27" data-name="Path 27" d="M320.744,207.925c.249,6.621-17.73,22.856-57.569,26.855s-62.565-4.238-62.565-4.238-10.022,2.144-16.973-5.844c0,0-4.876-4.537-13.273-10.8-.319-.239-.658-.489-.987-.728-15.916-11.727-43.548-28.879-74.492-33.925,0,0-2.832.618-5.744-2.792-1.556-1.825-3.131-4.807-4.308-9.643,0,0-.06,0-.17-.01a5.913,5.913,0,0,1-4.717-2.932c-1.416-2.842-3.73-7.728-3.73-7.728a22.3,22.3,0,0,1-.788-4.049c0-1.256-1.526-4.308-2.2-5.574-.4-.738-1.526-3.69-1.635-9.254A64.287,64.287,0,0,1,73.485,121.5a38.021,38.021,0,0,1,4.976-9.484,9.911,9.911,0,0,1,4.617-2.633c2.7-.568,9.374-1.346,9.374-1.346s19.426-14.36,62.166-16.225c32.36-1.406,51.047,5.036,58.207,8.247a31.09,31.09,0,0,1,3.41,1.725s5.146,2.433,11.009,5.864,34.314,23.594,34.314,23.594l39.31,21.729,5.415,6.911,4.318,5.5a21.806,21.806,0,0,1,0,3.4,21.492,21.492,0,0,1,4.587,12.974c.16,7.978-.389,15.018-1.895,18.109C313.274,199.847,320.494,201.3,320.744,207.925Z" transform="translate(-71.57 -91.592)" fill="#cac9da"/>
      <path id="Path_28" data-name="Path 28" d="M321.017,208.174c.249,6.621-17.73,22.856-57.569,26.855s-62.565-4.238-62.565-4.238-10.022,2.144-16.973-5.844a179.6,179.6,0,0,0-14.26-11.538l5.325-5.385-.359-7.12s-1.615-11.149,6.961-17.641,20.144,2.413,24.89,10.241a60.317,60.317,0,0,1,7.25,20.393c.578,3.66,1.665,10.072,1.665,10.072s26.805,10.321,50.369-1.586l40.208-15.148s5.554-2.393,7.609-7.13C313.548,200.1,320.768,201.553,321.017,208.174Z" transform="translate(-71.843 -91.841)" fill="#36374f"/>
      <path id="Path_29" data-name="Path 29" d="M176.486,207.043l-6.073,7.03c-.319-.239-.658-.489-.987-.728-15.916-11.727-43.548-28.879-74.492-33.925,0,0-2.832.618-5.744-2.792L99.8,158.15l75.339,43.439Z" transform="translate(-71.619 -91.777)" fill="#36374f"/>
      <path id="Path_30" data-name="Path 30" d="M84.643,166.907a5.913,5.913,0,0,1-4.717-2.932c-1.416-2.842-3.73-7.728-3.73-7.728a22.3,22.3,0,0,1-.788-4.049c0-1.256-1.526-4.308-2.2-5.574-.4-.738-1.526-3.69-1.635-9.254l8.925,3.65,3.759,24.462Z" transform="translate(-71.57 -91.719)" fill="#e5e5e5"/>
      <path id="Path_31" data-name="Path 31" d="M210.97,203.12a36.882,36.882,0,0,1,2.593,7.928c.568,3.56,1.775,12.944,1.775,12.944s28.889,10.112,46.849-.319l3.56-1.047,4.448-9.224s-6.98,3.56-11.338-4.288c-3.59-5.584-10.511-5.983-10.511-5.983H210.97Z" transform="translate(-71.959 -91.903)" fill="#e5e5e5"/>
      <path id="Path_32" data-name="Path 32" d="M315.8,179.88s-9.543,7.728-10.012,12.625-1.306,10.2-1.306,10.2l1.775,4.517a13.421,13.421,0,0,0,8.526-9.464C316.5,190.361,315.8,179.88,315.8,179.88Z" transform="translate(-72.219 -91.838)" fill="#e5e5e5"/>
      <path id="Path_33" data-name="Path 33" d="M284.368,206.365s-12.335,3.55-14.021,7.03-4.448,9.224-4.448,9.224l40.247-15.337-1.775-4.517a3.562,3.562,0,0,0-4.308-1.735C297.123,202,284.368,206.365,284.368,206.365Z" transform="translate(-72.112 -91.896)" fill="#52536b"/>
      <path id="Path_34" data-name="Path 34" d="M217.338,174.648l-12.286-1.625L73.47,121.476a38.021,38.021,0,0,1,4.976-9.483,9.911,9.911,0,0,1,4.617-2.633c2.7-.568,9.374-1.346,9.374-1.346s19.426-14.36,62.166-16.225c32.36-1.406,51.047,5.036,58.207,8.247-12.066,1.576-50.16,6.562-52.5,7.19-2.792.748-.728,3.879.529,4.667s20.3,24.392,26.546,33.466,26.885,21.779,31.312,25.07C223.122,173.74,217.338,174.648,217.338,174.648Z" transform="translate(-71.575 -91.592)" fill="#e3e3ea"/>
      <path id="Path_35" data-name="Path 35" d="M174.511,204.648s.02,2.164-3.191.888S103.859,175.2,103.859,175.2a3.214,3.214,0,0,1,0-3.42l70.563,29.089C174.411,202.1,174.431,203.352,174.511,204.648Z" transform="translate(-71.659 -91.815)" fill="#e5e5e5"/>
      <path id="Path_36" data-name="Path 36" d="M82.453,136.273c-4.408,5.864-1.675,21.081-1.675,21.081l18.987.708s4.039,10.182,4.039,13.6l68.718,28.331s-.8-17.71,8.815-20.533,9.962-4.607,7.32-6.492-81.582-33.975-81.582-33.975S87.958,128.953,82.453,136.273Z" transform="translate(-71.593 -91.709)" fill="#b5b5c5"/>
      <path id="Path_37" data-name="Path 37" d="M84.988,165.581s-3.5.02-3.849-3.281-2.294-22.058,8.327-17.082Z" transform="translate(-71.596 -91.739)" fill="#36374f"/>
      <path id="Path_38" data-name="Path 38" d="M240.693,209.057s-3.2.9-2.3,3.779,2.114,5.774,6.093,5.325,11.8-1.8,11.8-1.8,3.331-.917,3.081-2.732-1.665-5.6-4.747-5.724C251.523,207.77,240.693,209.057,240.693,209.057Z" transform="translate(-72.035 -91.916)" fill="#44455e"/>
      <path id="Path_39" data-name="Path 39" d="M310.353,190.238s2.852-1.665,2.982.618a29.858,29.858,0,0,1,0,3.809,2.7,2.7,0,0,1-1.456,1.705c-1.256.658-3.71,2.194-3.969,0v-2.792A3.485,3.485,0,0,1,310.353,190.238Z" transform="translate(-72.229 -91.865)" fill="#44455e"/>
      <ellipse id="Ellipse_9" data-name="Ellipse 9" cx="16.205" cy="24.063" rx="16.205" ry="24.063" transform="translate(97.18 97.845) rotate(-17.061)" fill="#575870"/>
      <ellipse id="Ellipse_10" data-name="Ellipse 10" cx="8.337" cy="17.292" rx="8.337" ry="17.292" transform="translate(9.401 54.909) rotate(-9.719)" fill="#575870"/>
      <ellipse id="Ellipse_11" data-name="Ellipse 11" cx="10.341" cy="16.245" rx="10.341" ry="16.245" transform="translate(104.823 102.76) rotate(-17.061)" fill="none" stroke="#9f9fb3" stroke-miterlimit="10" stroke-width="1"/>
      <ellipse id="Ellipse_12" data-name="Ellipse 12" cx="5.405" cy="12.685" rx="5.405" ry="12.685" transform="translate(13.238 59.942) rotate(-9.719)" fill="none" stroke="#9f9fb3" stroke-miterlimit="10" stroke-width="1"/>
      <path id="Path_40" data-name="Path 40" d="M208.92,144.956,244.2,165.568l-30.2-22.078Z" transform="translate(-71.953 -91.736)" fill="#a5a5b6"/>
      <path id="Path_41" data-name="Path 41" d="M253.57,135.838l20.054,14.37L255.385,135.25l-1.815.588" transform="translate(-72.077 -91.713)" fill="#a5a5b6"/>
      <path id="Path_42" data-name="Path 42" d="M162.859,110.788l53.012-7.679a2.393,2.393,0,0,1,1.586.319c2.722,1.635,12.256,7.359,15.407,9.384,3.111,2,21.42,15.048,26.985,19.027a1.031,1.031,0,0,1-.259,1.815c-5.674,1.994-23.464,7.928-41.195,10.58-13.273,1.984-20.154,2.982-23.474,3.45a4.412,4.412,0,0,1-4.278-1.895c-4.876-7.16-20.144-29.1-27.872-34.573A.233.233,0,0,1,162.859,110.788Z" transform="translate(-71.824 -91.624)" fill="#575870"/>
      <path id="Path_43" data-name="Path 43" d="M95.61,115.959s-.14,2.692,2.074,3.73,76.7,31.731,76.7,31.731a6.436,6.436,0,0,0,6.093-1.895c2.423-2.812-.828-6.342-.828-6.342s-10.261-21.909-30.345-33.875C137.573,102.307,105.981,92.365,95.61,115.959Z" transform="translate(-71.637 -91.618)" fill="#575870"/>
      <path id="Path_44" data-name="Path 44" d="M210.01,180.575c-.927,6,5.824,8.426,10.471,10.531s23.9,9.842,37.286,6.621c0,0,2.473-.12,0-4.208s-4.089-6.621-4.089-6.621-1.605-4.278-7.619-4.4-25.14-.678-30.226-2.972S210.01,180.575,210.01,180.575Z" transform="translate(-71.956 -91.835)" fill="#44455e"/>
      <path id="Path_45" data-name="Path 45" d="M255.39,182.606l6.143,12.615s.588,3.46,7.489,3.241,19.685-3.62,28.68-8.227c0,0,7.569-4.607,6.981-9.9s-2.523-13.373-2.523-13.373S291.978,176.8,255.39,182.606Z" transform="translate(-72.082 -91.802)" fill="#44455e"/>
      <path id="Path_46" data-name="Path 46" d="M311.241,168.955a41.943,41.943,0,0,1-3.889,10.012.459.459,0,0,1-.848-.17l-2.014-12.744c1.605-1.635,2.214-4.318,2.443-6l4.318,5.5A25.722,25.722,0,0,1,311.241,168.955Z" transform="translate(-72.219 -91.783)" fill="#52536b"/>
      <path id="Path_47" data-name="Path 47" d="M278.56,184.688l11.657-4.428a5.852,5.852,0,0,1-3.889,6.073A7.779,7.779,0,0,1,278.56,184.688Z" transform="translate(-72.147 -91.839)" fill="#9697aa"/>
      <path id="Path_48" data-name="Path 48" d="M102.77,120.919l20.473-18.1s14.041,1.376,19.316,4.487L118.177,127.73Z" transform="translate(-71.657 -91.623)" fill="url(#linear-gradient)"/>
      <path id="Path_49" data-name="Path 49" d="M98.145,127.38,104.806,130a1.388,1.388,0,0,1,.7,1.974l-.08.14a1.381,1.381,0,0,1-1.735.588l-6.582-2.762a1.377,1.377,0,0,1-.648-1.984h0A1.36,1.36,0,0,1,98.145,127.38Z" transform="translate(-71.639 -91.691)" fill="#585971"/>
      <path id="Path_50" data-name="Path 50" d="M131.875,141.13l6.661,2.623a1.388,1.388,0,0,1,.7,1.974l-.08.14a1.381,1.381,0,0,1-1.735.588l-6.582-2.762a1.377,1.377,0,0,1-.648-1.984h0A1.36,1.36,0,0,1,131.875,141.13Z" transform="translate(-71.733 -91.73)" fill="#585971"/>
      <path id="Path_51" data-name="Path 51" d="M199.63,106.443l5.415,20.622,42.95,6.153v-8.905l-31.3-20.323Z" transform="translate(-71.927 -91.626)" fill="#626377"/>
      <path id="Path_52" data-name="Path 52" d="M164.47,111.642l19.436-2.742s9.224,25.908,9.683,37.186c0,0-1.875-.07-3.68-2.792C188.084,140.571,170.683,115.731,164.47,111.642Z" transform="translate(-71.829 -91.64)" fill="url(#linear-gradient-2)"/>
      <path id="Path_53" data-name="Path 53" d="M133.609,104.57l-7.6,26.486,43.608,17.122,4.727-10.85C174.345,137.338,156.934,107.6,133.609,104.57Z" transform="translate(-71.722 -91.628)" fill="#575870"/>
      <path id="Path_54" data-name="Path 54" d="M133.539,104.5l-7.449,26.705,6.711,2.8,5.973-28.261C138.775,105.757,136.052,104.939,133.539,104.5Z" transform="translate(-71.722 -91.628)" fill="#3e3f58"/>
      <path id="Path_55" data-name="Path 55" d="M173.715,150.012l-3.361-.389s-14.111.529-16.6.349c-1.376-.1-2.174-1.247-2.613-2.762a15.822,15.822,0,0,1-.519-4.029c-.06-2.962,4.218-3.311,4.218-3.311s7.27,0,10.521.818a4.942,4.942,0,0,1,2.782,2.184,13.213,13.213,0,0,1,1.685,3.849A4.757,4.757,0,0,1,173.715,150.012Z" transform="translate(-71.79 -91.726)" fill="#575870"/>
      <path id="Path_56" data-name="Path 56" d="M168.141,142.872v.09s-.957,3.909-4.936,3.909c-2.712,0-8.586.209-12.076.339a15.822,15.822,0,0,1-.519-4.029c-.06-2.962,4.218-3.311,4.218-3.311s7.27,0,10.521.818A5.048,5.048,0,0,1,168.141,142.872Z" transform="translate(-71.79 -91.726)" fill="#99f863"/>
    </g>
    <g id="Group_64" data-name="Group 64" transform="translate(111.175 45.697)">
      <path id="Path_57" data-name="Path 57" d="M121.09,64.089l11.229,120.035A12.915,12.915,0,0,0,146.409,195.7l47.417-4.358a12.845,12.845,0,0,0,11.687-13.971L193.946,57.338A12.909,12.909,0,0,0,179.856,45.8l-47.078,4.358A12.849,12.849,0,0,0,121.09,64.089Z" transform="translate(-111.454 -45.743)" fill="#423349"/>
      <path id="Path_58" data-name="Path 58" d="M123.964,96.529s-4.348-1.546-5.3,2.643c-1.306,5.754,1.536,8.526,6.831,12.5Z" transform="translate(-111.447 -45.884)" fill="#ff9ea0"/>
      <path id="Path_59" data-name="Path 59" d="M127.665,134.757s-1.785-.459-4.178-1.356c-5.475-2.054-14.111-6.462-11.618-13.143,1.635-4.388,8.526-4.477,11.967-4.228,1.2.08,1.974.209,1.974.209Z" transform="translate(-111.427 -45.939)" fill="#ff9c96"/>
      <path id="Path_60" data-name="Path 60" d="M132.121,54.018l48.893-4.428a7.531,7.531,0,0,1,8.217,6.7l12.176,121.042a8.288,8.288,0,0,1-7.559,9.045L146.2,190.705a8.1,8.1,0,0,1-8.835-7.21L125.3,62.913a8.228,8.228,0,0,1,6.821-8.9Z" transform="translate(-111.466 -45.754)" fill="#fff"/>
      <g id="Group_57" data-name="Group 57" transform="translate(13.793 3.804)">
        <g id="Group_56" data-name="Group 56" clip-path="url(#clip-path)">
          <g id="Group_20" data-name="Group 20" transform="translate(-5.166 -1.141)">
            <rect id="Rectangle_16" data-name="Rectangle 16" width="73.215" height="77.942" transform="matrix(0.995, -0.096, 0.096, 0.995, 0, 7.007)" fill="#f2ede6"/>
          </g>
          <g id="Group_21" data-name="Group 21" transform="translate(-3.339 2.825)">
            <path id="Path_61" data-name="Path 61" d="M164.212,58.333l-2.872,6.482,37.615,45.962.189,2L152.893,56.758l-6.213,2.214-4.158,3.949-20.513,12.6-.1-1.057L142.173,61.9l3.839-3.809,6.392-2.314-2.633-3.2,1.9-.189,2.174,2.762,6.093-1.127,15.507,1.306,17.92-2.6.11,1.147-17.87,2.4Z" transform="translate(-121.91 -52.39)" fill="#fff"/>
          </g>
          <g id="Group_22" data-name="Group 22" transform="translate(29.23 5.268)">
            <path id="Path_62" data-name="Path 62" d="M154.57,56.047l5.963,7.649,3.032-5.953,9.4-1.984-12.595-.917Z" transform="translate(-154.57 -54.84)" fill="#f2ede6"/>
          </g>
          <g id="Group_23" data-name="Group 23" transform="translate(31.772 -0.077)">
            <path id="Path_63" data-name="Path 63" d="M174.462,111.417l-6.851-3.65-5.076-4.168-3.191-.778-2.224-4.458,1.915-4.358,4.956-7.8.658-2.264,1.306-1.247c.02-.02,3.391-3.949,3.49-5.774a12.471,12.471,0,0,1,1.067-4.039c.1-.259.2-.509.289-.748.219-.608.529-1.685.818-2.722.309-1.107.638-2.254.888-2.952a36.9,36.9,0,0,1,1.835-3.57c1.326-2.363,1.576-2.623,1.705-2.663a.137.137,0,0,1,.04-.03c.229-.189.748-.618,1.994.13,1.027.618,1.386.588,1.426.548,0,0,.18-.249-.678-1.655a9.37,9.37,0,0,1-1.157-5.774l.449-2.992,1.6-.977.249.409-1.406.858-.419,2.772a9.1,9.1,0,0,0,1.087,5.445c.758,1.247.937,1.915.608,2.254-.2.2-.618.359-2.014-.479-.957-.578-1.276-.309-1.446-.17a1.426,1.426,0,0,1-.15.11,47.5,47.5,0,0,0-3.271,5.953c-.249.678-.568,1.815-.878,2.912s-.6,2.134-.828,2.762c-.09.239-.189.5-.3.758a11.991,11.991,0,0,0-1.027,3.889c-.11,1.984-3.48,5.913-3.62,6.083l-1.227,1.177-.658,2.234-4.966,7.808-1.795,4.109,2.024,4.059,3.081.748,5.146,4.218L174.7,111ZM176.127,60.7Z" transform="translate(-157.12 -49.48)" fill="#bfc4bf"/>
          </g>
          <g id="Group_24" data-name="Group 24" transform="translate(44.726 24.095)">
            <path id="Path_64" data-name="Path 64" d="M197.454,98.79a13.713,13.713,0,0,0-2.673-2.553c-.748-.269-1.745-1.855-1.955-2.194-2.892-1.974-7.28-4.926-7.619-5.066a27.263,27.263,0,0,1-4.747-4.817c-1-1.436-4.5-3.62-4.936-3.879l-2.972-.349-2.443-3.281.14-2.932.479.02L170.6,76.5l2.214,2.972,2.872.329.04.03c.16.1,4.009,2.433,5.126,4.049a29.9,29.9,0,0,0,4.507,4.627c.329.09,5.554,3.63,7.788,5.156l.04.03.03.05a6.262,6.262,0,0,0,1.735,2.034c.768.269,2.663,2.453,2.872,2.692Z" transform="translate(-170.11 -73.72)" fill="#bfc4bf"/>
          </g>
          <g id="Group_25" data-name="Group 25" transform="translate(-1.824 3.692)">
            <path id="Path_65" data-name="Path 65" d="M123.779,87.893l-.349-.329,1.137-1.217-.239-2.483.678-2.214c-.758-.578-1.785-1.835-1.037-3.071a3.5,3.5,0,0,0,.18-2.2c-.11-.838-.229-1.795.7-1.915l.11-.01c.529-.07.868-.12,1-.289.14-.2.11-.688-.09-1.645-.469-2.174-.14-3.57,1.326-5.734.4-.588.977-1.4,1.586-2.254,1.635-2.284,3.66-5.116,3.979-6.113q.045-.135.09-.3c.389-1.247,1.037-3.331,2.343-3.839a1.92,1.92,0,0,1,1.7.229c1.994,1.187,2.453.748,2.453.738l.05-.13.11.03,2.623-.5,2.623-1.386,2.054,1.227-.249.409-1.815-1.087-2.483,1.306-2.583.489a.714.714,0,0,1-.329.17,4.1,4.1,0,0,1-2.692-.858,1.421,1.421,0,0,0-1.276-.2c-1.087.419-1.715,2.443-2.054,3.53q-.045.165-.09.3c-.339,1.067-2.314,3.819-4.049,6.253-.608.848-1.187,1.655-1.586,2.244-1.4,2.064-1.7,3.321-1.257,5.365.249,1.157.249,1.685.01,2.024s-.678.409-1.326.489l-.11.01c-.4.05-.419.359-.279,1.376a3.883,3.883,0,0,1-.239,2.523c-.768,1.256,1.027,2.513,1.047,2.533l.14.1-.758,2.453.249,2.6Z" transform="translate(-123.43 -53.26)" fill="#bfc4bf"/>
          </g>
          <g id="Group_27" data-name="Group 27" transform="translate(21.6 66.935)">
            <g id="Group_26" data-name="Group 26">
              <path id="Path_66" data-name="Path 66" d="M146.93,119.073a2.184,2.184,0,0,1,4.348-.419c.08.878-.2,1.147-1.615,3.69a.271.271,0,0,1-.449.04C147.349,120.17,147.02,119.951,146.93,119.073Zm3.081-.3a.912.912,0,1,0-.818,1A.909.909,0,0,0,150.011,118.774Z" transform="translate(-146.919 -116.679)" fill="#4361ee"/>
            </g>
          </g>
          <g id="Group_29" data-name="Group 29" transform="translate(14.442 101.241)">
            <g id="Group_28" data-name="Group 28">
              <path id="Path_67" data-name="Path 67" d="M139.75,153.134a1.873,1.873,0,1,1,3.73-.359c.07.748-.17.987-1.386,3.161a.235.235,0,0,1-.379.04C140.1,154.072,139.82,153.882,139.75,153.134Zm2.643-.249a.776.776,0,1,0-.7.848A.78.78,0,0,0,142.393,152.885Z" transform="translate(-139.741 -151.081)"/>
            </g>
          </g>
          <g id="Group_31" data-name="Group 31" transform="translate(53.783 62.03)">
            <g id="Group_30" data-name="Group 30">
              <path id="Path_68" data-name="Path 68" d="M186.849,115.23a3.837,3.837,0,1,1-4.188-3.45A3.85,3.85,0,0,1,186.849,115.23Zm-2.772-1.446-3.061,1.785a.374.374,0,0,0,.219.7l1.356-.13.13,1.356a.375.375,0,0,0,.728.08l1.167-3.341A.384.384,0,0,0,184.076,113.784Z" transform="translate(-179.193 -111.761)" fill="#4361ee"/>
            </g>
          </g>
          <g id="Group_32" data-name="Group 32" transform="translate(21.061 101.603)">
            <line id="Line_2" data-name="Line 2" y1="5.016" x2="52.134" transform="translate(0.011 0.125)"/>
            <rect id="Rectangle_17" data-name="Rectangle 17" width="52.374" height="0.239" transform="matrix(0.995, -0.096, 0.096, 0.995, 0, 5.012)" fill="#999"/>
          </g>
          <g id="Group_33" data-name="Group 33" transform="translate(21.999 111.325)">
            <line id="Line_3" data-name="Line 3" y1="5.006" x2="52.134" transform="translate(0.011 0.126)"/>
            <rect id="Rectangle_18" data-name="Rectangle 18" width="52.374" height="0.239" transform="matrix(0.995, -0.096, 0.096, 0.995, 0, 5.012)" fill="#999"/>
          </g>
          <g id="Group_34" data-name="Group 34" transform="translate(58.577 116.048)">
            <circle id="Ellipse_13" data-name="Ellipse 13" cx="3.829" cy="3.829" r="3.829"/>
          </g>
          <g id="Group_35" data-name="Group 35" transform="translate(15.609 113.536)">
            <path id="Path_69" data-name="Path 69" d="M142.974,167.17a1.883,1.883,0,1,1,1.7-2.054A1.881,1.881,0,0,1,142.974,167.17Zm-.309-3.261a1.4,1.4,0,1,0,1.526,1.256A1.392,1.392,0,0,0,142.665,163.909Z" transform="translate(-140.911 -163.411)"/>
          </g>
          <g id="Group_44" data-name="Group 44" transform="translate(13.334 87.091)">
            <g id="Group_36" data-name="Group 36" transform="translate(0 1.703)">
              <path id="Path_70" data-name="Path 70" d="M141.033,139.876l-.359,2.353-.758.07-1.286-3.261.8-.08.818,2.363.409-2.483.558-.05.868,2.363.349-2.473.808-.08-.628,3.44-.758.07Z" transform="translate(-138.63 -138.6)"/>
            </g>
            <g id="Group_37" data-name="Group 37" transform="translate(4.926 1.623)">
              <path id="Path_71" data-name="Path 71" d="M145.395,140.3c-.03-.339-.219-.429-.5-.4a.7.7,0,0,0-.529.339l.16,1.635-.638.06-.319-3.351.638-.06.12,1.237a1.137,1.137,0,0,1,.818-.459.7.7,0,0,1,.858.688l.17,1.725-.638.06Z" transform="translate(-143.57 -138.52)"/>
            </g>
            <g id="Group_38" data-name="Group 38" transform="translate(7.883 2.145)">
              <path id="Path_72" data-name="Path 72" d="M147.677,139.05a1.225,1.225,0,0,1,1.346,1.217l.01.14-1.8.17a.658.658,0,0,0,.748.5,1.011,1.011,0,0,0,.628-.3l.319.389a1.5,1.5,0,0,1-.967.429,1.228,1.228,0,0,1-1.416-1.147A1.255,1.255,0,0,1,147.677,139.05Zm-.5,1.107,1.2-.12a.566.566,0,0,0-.648-.479A.6.6,0,0,0,147.178,140.157Z" transform="translate(-146.535 -139.043)"/>
            </g>
            <g id="Group_39" data-name="Group 39" transform="translate(10.71 1.863)">
              <path id="Path_73" data-name="Path 73" d="M149.37,138.949l.638-.06.03.329a1.06,1.06,0,0,1,.738-.459l.06.618a.54.54,0,0,0-.18,0,.828.828,0,0,0-.568.329l.15,1.605-.638.06Z" transform="translate(-149.37 -138.76)"/>
            </g>
            <g id="Group_40" data-name="Group 40" transform="translate(12.47 1.707)">
              <path id="Path_74" data-name="Path 74" d="M152.277,138.61a1.225,1.225,0,0,1,1.346,1.217l.01.14-1.8.17a.658.658,0,0,0,.748.5,1.011,1.011,0,0,0,.628-.3l.319.389a1.5,1.5,0,0,1-.967.429,1.228,1.228,0,0,1-1.416-1.147A1.249,1.249,0,0,1,152.277,138.61Zm-.5,1.107,1.2-.12a.566.566,0,0,0-.648-.479A.589.589,0,0,0,151.778,139.717Z" transform="translate(-151.135 -138.604)"/>
            </g>
            <g id="Group_41" data-name="Group 41" transform="translate(16.314 0.746)">
              <path id="Path_75" data-name="Path 75" d="M155.558,140.193l-.12-1.266-.4.04-.05-.558.4-.04-.06-.668.648-.06.06.668.489-.05.05.558-.489.05.11,1.1a.241.241,0,0,0,.249.249.316.316,0,0,0,.209-.09l.179.469a.843.843,0,0,1-.519.209A.622.622,0,0,1,155.558,140.193Z" transform="translate(-154.99 -137.64)"/>
            </g>
            <g id="Group_42" data-name="Group 42" transform="translate(18.242 1.147)">
              <path id="Path_76" data-name="Path 76" d="M156.93,139.446a1.288,1.288,0,1,1,1.4,1.147A1.212,1.212,0,0,1,156.93,139.446Zm1.9-.18a.65.65,0,0,0-.688-.648.718.718,0,0,0,.14,1.416A.652.652,0,0,0,158.835,139.267Z" transform="translate(-156.923 -138.042)"/>
            </g>
            <g id="Group_43" data-name="Group 43" transform="translate(20.592)">
              <path id="Path_77" data-name="Path 77" d="M160.477,138.186c.15-.13.269-.229.259-.389s-.14-.279-.419-.249a.8.8,0,0,0-.588.369l-.449-.419a1.471,1.471,0,0,1,1.057-.6c.648-.06,1.077.229,1.117.7a.94.94,0,0,1-.429.838c-.16.15-.309.269-.289.459a.328.328,0,0,0,.11.2l-.529.209a.654.654,0,0,1-.209-.429C160.058,138.545,160.287,138.356,160.477,138.186Zm.09,1.366a.411.411,0,1,1-.369.449A.426.426,0,0,1,160.566,139.553Z" transform="translate(-159.28 -136.892)"/>
            </g>
          </g>
          <g id="Group_46" data-name="Group 46" transform="translate(61.509 119.01)">
            <g id="Group_45" data-name="Group 45">
              <path id="Path_78" data-name="Path 78" d="M188.725,169.638l.01.15c0,.02-.01.04-.03.04l-.748.07.07.748c0,.02-.01.04-.03.04l-.15.01c-.02,0-.04-.01-.04-.03l-.07-.748-.748.07c-.02,0-.04-.01-.04-.03l-.01-.15c0-.02.01-.04.03-.04l.748-.07-.07-.748c0-.02.01-.04.03-.04l.15-.01c.02,0,.04.01.04.03l.07.748.748-.07C188.705,169.6,188.725,169.608,188.725,169.638Z" transform="translate(-186.94 -168.9)" fill="#fff"/>
            </g>
          </g>
          <g id="Group_47" data-name="Group 47" transform="translate(12.277 55.198)">
            <path id="Path_79" data-name="Path 79" d="M153.286,113.037l-11.249,1.077a4.079,4.079,0,0,1-4.448-3.66h0a4.079,4.079,0,0,1,3.66-4.448L152.5,104.93a4.079,4.079,0,0,1,4.448,3.66h0A4.073,4.073,0,0,1,153.286,113.037Z" transform="translate(-137.57 -104.91)" fill="#fff"/>
          </g>
          <g id="Group_48" data-name="Group 48" transform="translate(17.722 125.731)">
            <path id="Path_80" data-name="Path 80" d="M158.746,183.767,147.5,184.844a4.079,4.079,0,0,1-4.448-3.66h0a4.079,4.079,0,0,1,3.66-4.448l11.249-1.077a4.079,4.079,0,0,1,4.448,3.66h0A4.073,4.073,0,0,1,158.746,183.767Z" transform="translate(-143.03 -175.64)" fill="#ededed"/>
          </g>
          <g id="Group_49" data-name="Group 49" transform="translate(25.58 128.81)">
            <path id="Path_81" data-name="Path 81" d="M154.679,180.026a.084.084,0,0,1-.02.07l-.06.09a.157.157,0,0,1-.08.05.084.084,0,0,1-.07-.02l-.189-.13.12,1.217a.206.206,0,0,1-.189.229l-.838.08a.206.206,0,0,1-.229-.189l-.07-.678-.419.04.07.678a.206.206,0,0,1-.189.229l-.838.08a.206.206,0,0,1-.229-.189l-.12-1.217-.17.17a.091.091,0,0,1-.07.03.113.113,0,0,1-.08-.03l-.07-.07a.091.091,0,0,1-.03-.07.113.113,0,0,1,.03-.08l1.486-1.476a.383.383,0,0,1,.229-.11.391.391,0,0,1,.239.06l.987.668-.04-.369a.063.063,0,0,1,.05-.06l.209-.02a.063.063,0,0,1,.06.05l.06.628.409.279C154.66,179.967,154.669,180,154.679,180.026Zm-.758-.179-1.247-.838-1.057,1.057.13,1.376.628-.06-.07-.678a.206.206,0,0,1,.189-.229l.628-.06a.206.206,0,0,1,.229.189l.07.678.628-.06Z" transform="translate(-150.91 -178.728)"/>
          </g>
          <g id="Group_50" data-name="Group 50" transform="translate(40.04 123.378)">
            <path id="Path_82" data-name="Path 82" d="M181.126,181.407l-11.249,1.077a4.079,4.079,0,0,1-4.448-3.66h0a4.079,4.079,0,0,1,3.66-4.448l11.249-1.077a4.079,4.079,0,0,1,4.448,3.66h0A4.073,4.073,0,0,1,181.126,181.407Z" transform="translate(-165.41 -173.28)" fill="#ededed"/>
          </g>
          <g id="Group_51" data-name="Group 51" transform="translate(47.845 126.407)">
            <path id="Path_83" data-name="Path 83" d="M176.591,177.158l.16,1.675a.321.321,0,0,1-.279.349l-2.722.259a.321.321,0,0,1-.349-.279l-.16-1.675a.321.321,0,0,1,.279-.349l.529-.05-.03-.319a.321.321,0,0,1,.279-.349l1.047-.1a.321.321,0,0,1,.349.279l.03.319.529-.05A.327.327,0,0,1,176.591,177.158Zm-3.032.329.05.489,2.722-.259-.05-.489a.043.043,0,0,0-.04-.04l-2.643.249C173.569,177.447,173.549,177.467,173.559,177.487Zm2.872,1.336-.08-.8-.947.09.02.16a.156.156,0,0,1-.14.17l-.529.05a.156.156,0,0,1-.17-.14l-.02-.16-.947.09.08.8a.043.043,0,0,0,.04.04l2.643-.249C176.421,178.863,176.431,178.843,176.431,178.823Zm-2.074-1.765,1.047-.1-.03-.319-1.047.1Z" transform="translate(-173.238 -176.318)"/>
          </g>
          <g id="Group_52" data-name="Group 52" transform="translate(15.954 58.02)">
            <rect id="Rectangle_19" data-name="Rectangle 19" width="11.867" height="0.818" transform="matrix(0.995, -0.096, 0.096, 0.995, 0, 1.136)" fill="#050505"/>
          </g>
          <g id="Group_53" data-name="Group 53" transform="translate(16.132 60.334)">
            <rect id="Rectangle_20" data-name="Rectangle 20" width="6.631" height="0.818" transform="matrix(0.995, -0.096, 0.096, 0.995, 0, 0.635)" fill="#050505"/>
          </g>
          <g id="Group_54" data-name="Group 54" transform="translate(48.862 17.892)">
            <rect id="Rectangle_21" data-name="Rectangle 21" width="11.867" height="0.818" transform="matrix(0.995, -0.096, 0.096, 0.995, 0, 1.136)" fill="#050505"/>
          </g>
          <g id="Group_55" data-name="Group 55" transform="translate(49.039 20.207)">
            <rect id="Rectangle_22" data-name="Rectangle 22" width="6.631" height="0.818" transform="matrix(0.995, -0.096, 0.096, 0.995, 0, 0.635)" fill="#050505"/>
          </g>
        </g>
      </g>
      <path id="Path_85" data-name="Path 85" d="M135.39,172.487c-6.841,3.191-14.739-2.144-17.222-10.192a17.974,17.974,0,0,1-.8-5.375c.07-10.8,11.288-10.66,11.288-10.66l.838,7.718s7.389,7.649,8.377,13.343C138.262,169.505,137.693,171.41,135.39,172.487Z" transform="translate(-111.444 -46.024)" fill="#ff9f91"/>
      <g id="Group_58" data-name="Group 58" transform="translate(12.453 113.534)">
        <path id="Path_86" data-name="Path 86" d="M128.956,170.529a1.23,1.23,0,0,1-.868-.349c-1.615-1.516-4.308-4.448-4.168-7.11a3.577,3.577,0,0,1,1.546-2.732c3.151-2.373,7.23,1.536,8.835,3.331a1.263,1.263,0,0,1-.02,1.725l-4.388,4.727a1.263,1.263,0,0,1-.9.409Zm-3.291-9.922.2.269a2.874,2.874,0,0,0-1.276,2.234c-.13,2.483,2.722,5.425,3.959,6.582a.577.577,0,0,0,.429.16.651.651,0,0,0,.429-.189l4.388-4.727a.6.6,0,0,0,.01-.818c-1.486-1.655-5.225-5.275-7.928-3.241Z" transform="translate(-123.915 -159.594)" fill="#fff"/>
      </g>
      <path id="Path_87" data-name="Path 87" d="M135.392,172.532c-6.841,3.191-14.739-2.144-17.222-10.191h0s6.691,16.065,19.7,5.016C138.264,169.55,137.7,171.455,135.392,172.532Z" transform="translate(-111.446 -46.068)" fill="#ff7379"/>
      <path id="Path_88" data-name="Path 88" d="M128.673,146.26l.838,7.718-6.98-6.173A16.871,16.871,0,0,1,128.673,146.26Z" transform="translate(-111.458 -46.024)" fill="#ff7379"/>
      <path id="Path_89" data-name="Path 89" d="M259.711,281.042H183.9s-14.918-39.17-17.342-41.2-17.82-19.236-21.869-25.918c-.289-.479-.608-.987-.967-1.516h0c-4.418-6.741-12.6-16.444-12.6-16.444s2.633-6.891,5.076-3.65,8.975,3.65,8.975,3.65l36.8-3.321s4.9-8.716,8.048-13.861,8.785-39.769,6.143-47.517v-.01c-2.214-6.432-1.207-16.683,3.231-17.6,12.685-2.224,21.43,53.73,17.212,68.848-4.138,14.819,4.438,33.247,4.438,33.247C223.063,222.027,259.711,281.042,259.711,281.042Z" transform="translate(-111.482 -45.932)" fill="#ff9d94"/>
      <path id="Path_90" data-name="Path 90" d="M181.978,192.847l-1.725,5.365c-38.482-3.69-36.558,14.031-36.518,14.4-4.418-6.741-12.6-16.444-12.6-16.444s2.633-6.891,5.076-3.65,8.975,3.65,8.975,3.65Z" transform="translate(-111.482 -46.15)" fill="#ed8a85"/>
      <path id="Path_91" data-name="Path 91" d="M190.19,178.817c3.161-5.136,8.785-39.769,6.143-47.517a16.552,16.552,0,0,1,1.845,5.3C198.6,139.5,202.246,168.047,190.19,178.817Z" transform="translate(-111.647 -45.982)" fill="#ed8a85"/>
      <path id="Path_92" data-name="Path 92" d="M143.437,194.192a4.512,4.512,0,0,1-3.091,4.158c-9,1.2-14.789-1.915-17.491-7.21h0a17.856,17.856,0,0,1-1.815-8.067c-.06-9.743,10.062-9.743,10.062-9.743l.678,6.771s3.131,2.5,8.576,7.868C142.729,190.313,143.517,192.457,143.437,194.192Z" transform="translate(-111.454 -46.099)" fill="#ff9f91"/>
      <g id="Group_59" data-name="Group 59" transform="translate(18.47 140.259)">
        <path id="Path_93" data-name="Path 93" d="M135.594,195.943a1.817,1.817,0,0,1-.718-.15c-.947-.429-4.109-2-4.8-4.5a3.886,3.886,0,0,1,.728-3.391h0a3.332,3.332,0,0,1,2.314-1.476c2.054-.289,4.378,1.266,5.574,2.224a1.723,1.723,0,0,1,.479,2.114l-2.014,4.2A1.744,1.744,0,0,1,135.594,195.943Zm-4.517-7.848.279.2a3.285,3.285,0,0,0-.628,2.822c.608,2.214,3.53,3.66,4.418,4.059a1.051,1.051,0,0,0,1.4-.509l2.014-4.2a1.046,1.046,0,0,0-.289-1.286c-1.117-.888-3.261-2.343-5.056-2.084a2.693,2.693,0,0,0-1.865,1.2Z" transform="translate(-129.949 -186.395)" fill="#fff"/>
      </g>
      <path id="Path_94" data-name="Path 94" d="M143.442,194.241a4.512,4.512,0,0,1-3.091,4.158c-9,1.2-14.789-1.915-17.491-7.21C123.119,191.439,133.68,201.9,143.442,194.241Z" transform="translate(-111.459 -46.149)" fill="#f46e78"/>
      <path id="Path_95" data-name="Path 95" d="M131.782,180.091l-6.532-5.116a11.4,11.4,0,0,1,5.854-1.655C131.782,179.782,131.782,180.091,131.782,180.091Z" transform="translate(-111.466 -46.099)" fill="#db616a"/>
      <g id="Group_60" data-name="Group 60" transform="translate(88.843 70.824)">
        <path id="Path_96" data-name="Path 96" d="M210.731,128.916h0c-7.758-.02-9.194-5.774-9.962-8.865-.07-.269-.13-.529-.2-.768a1.481,1.481,0,0,1,.179-1.177,1.514,1.514,0,0,1,.987-.678l3.48-.658a.34.34,0,1,1,.13.668l-3.48.658a.844.844,0,0,0-.548.369.8.8,0,0,0-.1.638c.06.239.13.5.2.778.778,3.121,2.074,8.337,9.3,8.357a.336.336,0,0,1,.339.339A.322.322,0,0,1,210.731,128.916Z" transform="translate(-200.519 -116.765)" fill="#fff"/>
      </g>
      <g id="Group_61" data-name="Group 61" transform="translate(67.689 146.355)">
        <path id="Path_97" data-name="Path 97" d="M186.031,224.152a.331.331,0,0,1-.269-.14c-.11-.15-11.308-15.487-3.959-31.312a.337.337,0,1,1,.608.289c-7.18,15.467,3.779,30.475,3.889,30.624a.335.335,0,0,1-.07.469A.3.3,0,0,1,186.031,224.152Z" transform="translate(-179.305 -192.507)" fill="#ff6d68"/>
      </g>
      <g id="Group_62" data-name="Group 62" transform="translate(59.385 153.001)">
        <path id="Path_98" data-name="Path 98" d="M173.044,224.17a.335.335,0,0,1-.309-.2c-3.859-8.367-.179-23.883-.02-24.541a.339.339,0,0,1,.658.16c-.04.16-3.779,15.945-.02,24.1a.339.339,0,0,1-.17.449A.392.392,0,0,1,173.044,224.17Z" transform="translate(-170.979 -199.172)" fill="#ff6d68"/>
      </g>
      <g id="Group_63" data-name="Group 63" transform="translate(75.872 185.11)">
        <path id="Path_99" data-name="Path 99" d="M205.769,262.343a.323.323,0,0,1-.289-.17l-17.92-30.3a.335.335,0,1,1,.578-.339l17.92,30.3a.329.329,0,0,1-.12.459A.335.335,0,0,1,205.769,262.343Z" transform="translate(-187.511 -231.371)" fill="#ff6d68"/>
      </g>
    </g>
  </g>
</svg>
