<svg xmlns="http://www.w3.org/2000/svg" width="23.961" height="23.96" viewBox="0 0 23.961 23.96">
  <path id="call-incoming" d="M23.075,16.762a3.1,3.1,0,0,1,0,4.378l-.912,1.05c-8.191,7.838-28.119-12.084-20.4-20.3l1.15-1A3.081,3.081,0,0,1,7.24.929c.031.03,1.883,2.438,1.883,2.438a3.109,3.109,0,0,1-.006,4.282L7.959,9.1A12.784,12.784,0,0,0,14.89,16.05l1.465-1.165a3.1,3.1,0,0,1,4.28-.006s2.409,1.853,2.44,1.883ZM21.7,18.216s-2.393-1.842-2.424-1.872a1.1,1.1,0,0,0-1.549,0c-.027.026-2.044,1.634-2.044,1.634a1,1,0,0,1-.979.152A15.009,15.009,0,0,1,5.879,9.319a1,1,0,0,1,.145-1S7.632,6.3,7.659,6.279a1.1,1.1,0,0,0,0-1.549C7.629,4.7,5.787,2.3,5.787,2.3a1.1,1.1,0,0,0-1.51.039l-1.15,1c-5.642,6.783,11.63,23.1,17.573,17.483l.912-1.051A1.12,1.12,0,0,0,21.7,18.216Z" transform="translate(-0.019 -0.022)" fill="#4361ee"/>
</svg>
