<svg xmlns="http://www.w3.org/2000/svg" xmlns:xlink="http://www.w3.org/1999/xlink" width="299.434" height="297.447" viewBox="0 0 299.434 297.447">
  <defs>
    <linearGradient id="linear-gradient" y1="0.5" x2="1" y2="0.5" gradientUnits="objectBoundingBox">
      <stop offset="0" stop-color="#dae3fe"/>
      <stop offset="1" stop-color="#e9effd"/>
    </linearGradient>
    <linearGradient id="linear-gradient-5" x1="0.541" y1="-0.201" x2="0.402" y2="1.92" gradientUnits="objectBoundingBox">
      <stop offset="0" stop-color="#4f52ff"/>
      <stop offset="1" stop-color="#4042e2"/>
    </linearGradient>
    <clipPath id="clip-path">
      <rect id="Rectangle_30" data-name="Rectangle 30" width="86.48" height="93.337" rx="12" fill="none"/>
    </clipPath>
    <linearGradient id="linear-gradient-6" x1="-0.188" y1="-0.419" x2="0.507" y2="0.907" gradientUnits="objectBoundingBox">
      <stop offset="0" stop-color="#09005d"/>
      <stop offset="1" stop-color="#1a0f91"/>
    </linearGradient>
    <linearGradient id="linear-gradient-7" x1="0.121" y1="0.001" x2="0.723" y2="1.348" xlink:href="#linear-gradient-6"/>
    <linearGradient id="linear-gradient-8" x1="0.487" y1="0.513" x2="0.599" y2="2.702" gradientUnits="objectBoundingBox">
      <stop offset="0" stop-color="#febbba"/>
      <stop offset="1" stop-color="#ff928e"/>
    </linearGradient>
    <linearGradient id="linear-gradient-9" x1="0.377" y1="0.382" x2="1.408" y2="1.349" xlink:href="#linear-gradient-8"/>
    <linearGradient id="linear-gradient-10" x1="-1.87" y1="-0.765" x2="5.325" y2="3.173" xlink:href="#linear-gradient-8"/>
    <linearGradient id="linear-gradient-11" x1="0.606" y1="0.521" x2="6.241" y2="4.672" xlink:href="#linear-gradient-8"/>
    <linearGradient id="linear-gradient-12" x1="0" y1="0.5" x2="1" y2="0.5" xlink:href="#linear-gradient-6"/>
    <linearGradient id="linear-gradient-13" x1="0.5" y1="2.216" x2="0.5" y2="-0.703" xlink:href="#linear-gradient-6"/>
    <linearGradient id="linear-gradient-14" x1="0.48" y1="0.083" x2="0.966" y2="1.153" xlink:href="#linear-gradient-6"/>
    <linearGradient id="linear-gradient-15" x1="0.267" y1="-0.187" x2="0.753" y2="0.961" xlink:href="#linear-gradient-6"/>
  </defs>
  <g id="Groupe_116" data-name="Groupe 116" transform="translate(-479.209 -475.473)">
    <path id="Tracé_186" data-name="Tracé 186" d="M790.919,689.72c-28.658,67.012-105,104.553-171.2,94.427-10.772-1.648-40.3-6.556-66.452-29.713-50.335-44.578-61.1-132.849-20.5-195.055,29.552-45.275,82.528-70.94,132.865-69.657,10.843.277,52.4,1.981,88.914,31.885a136.348,136.348,0,0,1,27.856,31.388C807.444,591.877,809.6,646.047,790.919,689.72Z" transform="translate(-25.998 -12.862)" fill="#4361ee" opacity="0.2"/>
    <g id="Groupe_93" data-name="Groupe 93" transform="translate(548.038 485.741)">
      <g id="Groupe_88" data-name="Groupe 88" transform="translate(0)">
        <g id="Groupe_85" data-name="Groupe 85" transform="translate(13.076)" opacity="0.3">
          <path id="Tracé_187" data-name="Tracé 187" d="M1298.433,616.807a.679.679,0,0,1-.545-.79c.131-.716.234-1.449.3-2.178a.679.679,0,0,1,.728-.612h.013a.679.679,0,0,1,.61.741c-.074.767-.182,1.539-.32,2.293a.679.679,0,0,1-.719.554A.627.627,0,0,1,1298.433,616.807Zm-.142-6.54c-.03-.731-.091-1.468-.182-2.191a.679.679,0,1,1,1.347-.17c.1.76.161,1.536.192,2.306a.679.679,0,0,1-.651.706.722.722,0,0,1-.081,0A.679.679,0,0,1,1298.291,610.267Zm-.874-5.694c-.191-.7-.415-1.409-.666-2.095a.679.679,0,1,1,1.275-.467c.264.722.5,1.464.7,2.206a.679.679,0,1,1-1.31.356Zm-2.126-5.355c-.344-.645-.72-1.282-1.118-1.894a.679.679,0,1,1,1.139-.74c.419.645.815,1.315,1.177,1.994a.679.679,0,0,1-1.2.64Zm-3.266-4.748c-.478-.551-.986-1.089-1.51-1.6a.679.679,0,1,1,.947-.973c.552.537,1.086,1.1,1.589,1.683a.679.679,0,1,1-1.026.889Zm-4.235-3.907c-.588-.432-1.2-.844-1.826-1.225a.679.679,0,1,1,.708-1.159c.656.4,1.3.835,1.922,1.29a.679.679,0,0,1-.455,1.224A.672.672,0,0,1,1287.789,590.561Zm-24.915-3.845a.679.679,0,0,1,.406-.87c.722-.263,1.465-.5,2.208-.7a.679.679,0,0,1,.353,1.311c-.706.19-1.411.413-2.1.663a.678.678,0,0,1-.87-.406Zm19.922.975c-.669-.29-1.36-.555-2.052-.787a.679.679,0,1,1,.431-1.288c.729.244,1.455.523,2.16.829a.679.679,0,1,1-.54,1.246Zm-14.207-2.508a.679.679,0,0,1,.59-.757c.762-.095,1.539-.157,2.307-.187a.679.679,0,1,1,.053,1.357c-.731.028-1.469.088-2.193.178a.68.68,0,0,1-.757-.59Zm8.7.827c-.717-.133-1.45-.237-2.177-.309a.679.679,0,0,1,.119-1.352h.014c.766.075,1.537.185,2.292.324a.679.679,0,0,1-.176,1.345C1277.336,586.018,1277.312,586.015,1277.288,586.01Z" transform="translate(-1258.52 -584.238)" fill="#bdd0fb"/>
          <path id="Tracé_188" data-name="Tracé 188" d="M1217.769,618.615a.676.676,0,0,0,.4-.091c.3-.177.613-.351.923-.517a.679.679,0,1,0-.639-1.2c-.327.174-.653.357-.971.543a.679.679,0,0,0,.292,1.263Z" transform="translate(-1217.142 -613.662)" fill="#bdd0fb"/>
        </g>
        <g id="Groupe_86" data-name="Groupe 86" transform="translate(0 19.159)" opacity="0.3">
          <path id="Tracé_189" data-name="Tracé 189" d="M1086.984,789.589a.679.679,0,0,0,.712-.518c.082-.34.172-.685.268-1.023a.679.679,0,1,0-1.306-.372c-.1.357-.2.719-.283,1.078a.679.679,0,0,0,.609.836Z" transform="translate(-1085.628 -787.183)" fill="#bdd0fb"/>
          <path id="Tracé_190" data-name="Tracé 190" d="M1102.3,866.206a.679.679,0,0,1,.171-1.347c.708.09,1.431.151,2.157.183a.679.679,0,0,1-.059,1.357q-.472-.021-.939-.057C1103.181,866.307,1102.734,866.262,1102.3,866.206Zm5.229-.511a.679.679,0,0,1,.613-.738c.717-.066,1.438-.164,2.145-.289a.679.679,0,0,1,.238,1.337c-.744.132-1.5.235-2.258.3a.679.679,0,0,1-.739-.614Zm-8.858-.2c-.729-.2-1.46-.427-2.172-.685a.679.679,0,1,1,.463-1.276c.676.245,1.37.464,2.063.651a.679.679,0,1,1-.353,1.311Zm14.59-.819a.679.679,0,0,1,.436-.855c.684-.222,1.366-.475,2.028-.754a.679.679,0,0,1,.526,1.251c-.7.293-1.416.56-2.136.794a.678.678,0,0,1-.855-.436Zm-20.143-1.362c-.668-.352-1.33-.737-1.968-1.146a.679.679,0,0,1,.732-1.144c.606.388,1.235.754,1.869,1.088a.679.679,0,1,1-.633,1.2Zm-4.94-3.346c-.576-.491-1.138-1.011-1.671-1.547a.679.679,0,1,1,.963-.957c.506.509,1.04,1,1.587,1.47a.679.679,0,1,1-.88,1.034Zm-4.093-4.344c-.456-.6-.891-1.236-1.294-1.874a.679.679,0,1,1,1.148-.724c.383.607.8,1.206,1.23,1.781a.679.679,0,1,1-1.084.817Zm-3.048-5.133c-.312-.69-.6-1.4-.852-2.113a.679.679,0,1,1,1.28-.454c.24.677.512,1.352.809,2.007a.679.679,0,0,1-1.237.56Zm-1.847-5.68c-.152-.74-.275-1.5-.365-2.248a.679.679,0,0,1,1.348-.161c.085.714.2,1.432.347,2.135a.679.679,0,1,1-1.33.274Zm-.554-5.941c.009-.556.035-1.12.078-1.674q.023-.3.053-.6a.671.671,0,0,1,.742-.608.679.679,0,0,1,.609.742q-.029.284-.051.57c-.041.527-.065,1.062-.074,1.591a.679.679,0,0,1-.69.668l-.042,0A.679.679,0,0,1,1078.632,838.865Z" transform="translate(-1078.632 -831.372)" fill="#bdd0fb"/>
          <path id="Tracé_191" data-name="Tracé 191" d="M1502.016,1100.872a.675.675,0,0,0,.4-.093c.316-.187.634-.385.945-.588a.679.679,0,0,0-.74-1.138c-.3.192-.6.38-.9.558a.679.679,0,0,0,.295,1.261Z" transform="translate(-1461.479 -1069.512)" fill="#bdd0fb"/>
        </g>
        <g id="Groupe_87" data-name="Groupe 87" transform="translate(6.722 6.498)">
          <path id="Tracé_192" data-name="Tracé 192" d="M1186.543,685.816a.316.316,0,0,0,.052-.365l-1.773-3.431a16.826,16.826,0,0,0,1.967-5.083l3.618-1.344a.317.317,0,0,0,.207-.3l-.11-4.631a.317.317,0,0,0-.221-.295l-3.677-1.171a16.818,16.818,0,0,0-2.206-4.983l1.608-3.511a.318.318,0,0,0-.07-.362l-3.353-3.2a.317.317,0,0,0-.364-.052l-3.431,1.773a16.824,16.824,0,0,0-5.083-1.967l-1.344-3.617a.317.317,0,0,0-.305-.207l-4.631.11a.317.317,0,0,0-.295.221l-1.171,3.677a16.814,16.814,0,0,0-4.984,2.207l-3.511-1.608a.317.317,0,0,0-.362.069l-3.2,3.352a.318.318,0,0,0-.052.365l1.774,3.431a16.815,16.815,0,0,0-1.968,5.083l-3.617,1.344a.317.317,0,0,0-.207.3l.11,4.631a.318.318,0,0,0,.221.295l3.677,1.171a16.818,16.818,0,0,0,2.206,4.984l-1.609,3.511a.318.318,0,0,0,.07.362l3.353,3.2a.317.317,0,0,0,.365.052l3.431-1.773a16.822,16.822,0,0,0,5.083,1.967l1.344,3.618a.318.318,0,0,0,.305.207l4.631-.11a.317.317,0,0,0,.295-.221l1.171-3.677a16.818,16.818,0,0,0,4.984-2.207l3.511,1.608a.317.317,0,0,0,.362-.07Z" transform="translate(-1149.838 -653.069)" fill="#bdd0fb"/>
          <path id="Tracé_193" data-name="Tracé 193" d="M1320.1,828.891a4.653,4.653,0,1,1,.676.1A4.721,4.721,0,0,1,1320.1,828.891Zm-.87-7.561a3.57,3.57,0,1,0,2.693-.46,3.613,3.613,0,0,0-.523-.079A3.542,3.542,0,0,0,1319.23,821.329Z" transform="translate(-1300.744 -803.962)" fill="url(#linear-gradient)"/>
          <path id="Tracé_194" data-name="Tracé 194" d="M1254.378,769.84a11.719,11.719,0,0,0,1.176.031h0c.124,0,.248-.008.373-.015a11.535,11.535,0,0,0,1.817-.248l.024-.005.069-.016.134-.031a.271.271,0,0,0,.207-.243.261.261,0,0,0-.007-.085.272.272,0,0,0-.328-.2,10.918,10.918,0,0,1-11.623-4.54,10.84,10.84,0,0,1-1.841-5.8,11.062,11.062,0,0,1,.03-1.122,10.906,10.906,0,1,1,20.363,6.239.272.272,0,0,0,.473.268,11.45,11.45,0,1,0-21.378-6.55,11.732,11.732,0,0,0-.031,1.178,11.452,11.452,0,0,0,10.542,11.142Z" transform="translate(-1234.96 -738.111)" fill="url(#linear-gradient)"/>
        </g>
      </g>
      <g id="Groupe_92" data-name="Groupe 92" transform="translate(41.468 27.398)">
        <g id="Groupe_89" data-name="Groupe 89" transform="translate(14.629)" opacity="0.3">
          <path id="Tracé_195" data-name="Tracé 195" d="M1867.031,1119.657a.419.419,0,0,0,.424-.27c.126-.333.244-.674.351-1.014a.42.42,0,0,0-.8-.25c-.1.324-.213.649-.334.967a.418.418,0,0,0,.36.567Z" transform="translate(-1848.349 -1094.854)" fill="#bdd0fb"/>
          <path id="Tracé_196" data-name="Tracé 196" d="M1692.355,896.145a.419.419,0,0,1-.338-.487,17.437,17.437,0,0,0,.225-1.745q.014-.184.025-.37a.419.419,0,0,1,.442-.4.435.435,0,0,1,.4.443c-.008.13-.016.259-.026.387a18.2,18.2,0,0,1-.236,1.83.419.419,0,0,1-.444.343Zm-.1-4.732a17.38,17.38,0,0,0-.27-2.112.419.419,0,0,1,.824-.157,18.14,18.14,0,0,1,.283,2.214.419.419,0,1,1-.837.055Zm-.8-4.175a17.208,17.208,0,0,0-.781-1.981.419.419,0,0,1,.76-.355,18.115,18.115,0,0,1,.819,2.078.419.419,0,0,1-.8.259Zm-1.8-3.851a17.314,17.314,0,0,0-1.242-1.729.419.419,0,0,1,.65-.53,18.217,18.217,0,0,1,1.3,1.814.419.419,0,0,1-.71.446Zm-2.686-3.295a17.482,17.482,0,0,0-1.624-1.376.419.419,0,0,1,.5-.672,18.275,18.275,0,0,1,1.7,1.442.419.419,0,0,1-.58.606Zm-3.4-2.543a17.171,17.171,0,0,0-1.909-.937.419.419,0,0,1,.323-.774,18.079,18.079,0,0,1,2,.983.419.419,0,0,1-.24.782A.412.412,0,0,1,1683.567,877.551Zm-3.921-1.632a17.188,17.188,0,0,0-2.083-.44.42.42,0,0,1,.123-.83,18.155,18.155,0,0,1,2.184.462.419.419,0,0,1-.144.822A.429.429,0,0,1,1679.646,875.919Zm-6.791-.918a.419.419,0,0,1,.376-.459,18.247,18.247,0,0,1,1.937-.087c.1,0,.2,0,.294,0a.419.419,0,0,1-.021.839c-.092,0-.184,0-.278,0a17.428,17.428,0,0,0-1.85.083.418.418,0,0,1-.459-.376Z" transform="translate(-1672.853 -874.455)" fill="#bdd0fb"/>
        </g>
        <g id="Groupe_90" data-name="Groupe 90" transform="translate(0 24.383)" opacity="0.3">
          <path id="Tracé_197" data-name="Tracé 197" d="M1533.041,1144.5a18.285,18.285,0,0,1-2.17-.329.419.419,0,1,1,.176-.82,17.383,17.383,0,0,0,2.07.314.419.419,0,0,1-.07.836Zm1.764-.341a.419.419,0,0,1,.407-.431,17.535,17.535,0,0,0,2.087-.188.419.419,0,0,1,.125.829,18.349,18.349,0,0,1-2.187.2h-.046A.419.419,0,0,1,1534.8,1144.16Zm-6.05-.579a18.27,18.27,0,0,1-2.027-.844.419.419,0,0,1,.369-.754,17.335,17.335,0,0,0,1.933.806.419.419,0,0,1-.275.792Zm10.3.037a.419.419,0,0,1,.291-.517,17.249,17.249,0,0,0,1.979-.686.419.419,0,1,1,.322.774,17.954,17.954,0,0,1-2.076.72.42.42,0,0,1-.517-.291Zm-14.234-1.966a18.248,18.248,0,0,1-1.764-1.307.419.419,0,0,1,.539-.642,17.216,17.216,0,0,0,1.682,1.246.419.419,0,0,1-.458.7Zm-3.358-2.816a18.362,18.362,0,0,1-1.4-1.691.419.419,0,0,1,.677-.495,17.516,17.516,0,0,0,1.336,1.613.419.419,0,0,1-.613.573Zm-2.587-3.54a18.15,18.15,0,0,1-.954-1.979.419.419,0,0,1,.776-.318,17.094,17.094,0,0,0,.91,1.887.419.419,0,0,1-.162.57.41.41,0,0,1-.237.052A.419.419,0,0,1,1518.876,1135.3Z" transform="translate(-1517.89 -1132.74)" fill="#bdd0fb"/>
          <path id="Tracé_198" data-name="Tracé 198" d="M1784.369,1220.4a.418.418,0,0,0,.24-.054c.312-.178.62-.365.916-.557a.419.419,0,0,0-.457-.7c-.282.183-.576.362-.874.532a.419.419,0,0,0,.176.782Z" transform="translate(-1758.862 -1210.875)" fill="#bdd0fb"/>
        </g>
        <g id="Groupe_91" data-name="Groupe 91" transform="translate(3.155 4.327)">
          <path id="Tracé_199" data-name="Tracé 199" d="M1575.875,942.2a.213.213,0,0,0,.035-.244l-1.187-2.3a11.258,11.258,0,0,0,1.316-3.4l2.421-.9a.212.212,0,0,0,.138-.2l-.074-3.1a.212.212,0,0,0-.147-.2l-2.461-.784a11.252,11.252,0,0,0-1.476-3.335l1.076-2.349a.212.212,0,0,0-.047-.242l-2.243-2.139a.212.212,0,0,0-.244-.035l-2.3,1.187a11.249,11.249,0,0,0-3.4-1.316l-.9-2.421a.213.213,0,0,0-.2-.138l-3.1.074a.212.212,0,0,0-.2.148l-.784,2.461a11.25,11.25,0,0,0-3.335,1.477l-2.349-1.076a.213.213,0,0,0-.242.047l-2.139,2.243a.212.212,0,0,0-.035.244l1.186,2.3a11.26,11.26,0,0,0-1.316,3.4l-2.421.9a.212.212,0,0,0-.138.2l.074,3.1a.212.212,0,0,0,.148.2l2.461.784a11.255,11.255,0,0,0,1.476,3.335l-1.076,2.349a.212.212,0,0,0,.047.242l2.243,2.139a.213.213,0,0,0,.244.035l2.3-1.187a11.255,11.255,0,0,0,3.4,1.316l.9,2.421a.212.212,0,0,0,.2.138l3.1-.074a.212.212,0,0,0,.2-.148l.784-2.461a11.259,11.259,0,0,0,3.335-1.476l2.35,1.076a.212.212,0,0,0,.242-.046Z" transform="translate(-1551.313 -920.284)" fill="#bdd0fb"/>
          <path id="Tracé_200" data-name="Tracé 200" d="M1664.688,1037.469a3.157,3.157,0,1,1,.465.071A3.231,3.231,0,0,1,1664.688,1037.469Zm-1.572-3.61a2.333,2.333,0,0,0,1.758,2.792h0a2.333,2.333,0,0,0,1.034-4.55,2.368,2.368,0,0,0-.339-.052A2.337,2.337,0,0,0,1663.115,1033.859Z" transform="translate(-1651.748 -1020.734)" fill="url(#linear-gradient)"/>
          <path id="Tracé_201" data-name="Tracé 201" d="M1618.977,996.38q.4.03.8.021a7.934,7.934,0,0,0,1.6-.2l.07-.017a.419.419,0,1,0-.2-.815,7.1,7.1,0,0,1-1.491.194h-.083a6.991,6.991,0,0,1-3.363-.8,7.1,7.1,0,0,1-1.548-1.1l-.011-.011-.035-.033a7.014,7.014,0,0,1-2.186-4.942,7.144,7.144,0,0,1,.019-.726,7.061,7.061,0,1,1,13.183,4.038.419.419,0,1,0,.73.414,7.885,7.885,0,0,0,1-3.279,7.987,7.987,0,0,0,.022-.8,7.9,7.9,0,0,0-15.771-.437,8.023,8.023,0,0,0-.022.812A7.91,7.91,0,0,0,1618.977,996.38Z" transform="translate(-1605.993 -974.912)" fill="url(#linear-gradient)"/>
        </g>
      </g>
    </g>
    <g id="Groupe_94" data-name="Groupe 94" transform="translate(501.918 475.473)" opacity="0.5">
      <path id="Tracé_202" data-name="Tracé 202" d="M719.868,477.6a1.557,1.557,0,0,1,2.3-1.869c12.862,8.32,44.873,34.418,48.108,89.6,4.058,69.24,22.662,91.393,42.966,103.278,0,0-25.411-2.706-45.146-25.029C719.641,588.774,729.814,502.507,719.868,477.6Z" transform="translate(-719.752 -475.473)" fill="#4361ee"/>
      <path id="Tracé_203" data-name="Tracé 203" d="M850.026,700.771c2.745,7.291,5.345,14.633,7.672,22.059q3.549,11.119,6.411,22.43c1.875,7.544,3.608,15.121,5.017,22.761,1.443,7.633,2.557,15.32,3.648,23.042,1.133,7.711,2.232,15.485,4.129,23.171a79.04,79.04,0,0,0,8.85,22.068c1.032,1.7,2.1,3.39,3.254,5,1.126,1.631,2.325,3.213,3.552,4.773a81.949,81.949,0,0,0,27.468,22.443,1.506,1.506,0,0,0,1.416-2.658l-.005,0c-1.685-.927-3.357-1.872-4.98-2.888-.82-.5-1.617-1.026-2.423-1.541-.786-.545-1.593-1.06-2.361-1.629a79.422,79.422,0,0,1-8.814-7.308,87.032,87.032,0,0,1-14.26-17.884,75.808,75.808,0,0,1-5.07-10.237A85.984,85.984,0,0,1,880,813.455c-1.9-7.449-3.05-15.135-4.239-22.838s-2.457-15.435-4.031-23.1q-1.165-5.754-2.536-11.461c-.446-1.9-.928-3.8-1.407-5.7q-.746-2.837-1.528-5.664-3.159-11.3-7.008-22.379c-2.6-7.369-5.4-14.666-8.474-21.843a.4.4,0,0,0-.749.3Z" transform="translate(-837.704 -679.007)" fill="#4361ee" style="mix-blend-mode: soft-light;isolation: isolate"/>
    </g>
    <g id="Groupe_96" data-name="Groupe 96" transform="translate(479.209 537.083)" opacity="0.5">
      <g id="Groupe_95" data-name="Groupe 95" transform="translate(0 0)">
        <path id="Tracé_204" data-name="Tracé 204" d="M529.845,1095.661a3.914,3.914,0,0,1-6.277,1.679c-11.577-10.059-41.736-41.459-39.993-94.374,1.472-44.684-1.976-69.053-4.307-80.008a2.454,2.454,0,0,1,4.03-2.345C502.852,937.944,562.07,1000.24,529.845,1095.661Z" transform="translate(-479.209 -919.986)" fill="#4361ee"/>
        <path id="Tracé_205" data-name="Tracé 205" d="M690.256,1566.893a1.066,1.066,0,0,1-.183.1,1.085,1.085,0,0,1-1.43-.556c-.274-.622-27.386-62.892-28.146-125.114a1.085,1.085,0,0,1,2.171-.026c.754,61.77,27.69,123.649,27.961,124.266A1.085,1.085,0,0,1,690.256,1566.893Z" transform="translate(-643.382 -1391.114)" fill="#4361ee" style="mix-blend-mode: soft-light;isolation: isolate"/>
      </g>
    </g>
    <g id="Groupe_109" data-name="Groupe 109" transform="translate(494.423 595.253)">
      <g id="Groupe_104" data-name="Groupe 104" transform="translate(0 0)">
        <path id="Tracé_206" data-name="Tracé 206" d="M924.578,1352.9l-3.189,116.132-.5,17.961c0,2.347-2.237,4.247-4.965,4.247H647.559c-2.728,0-4.965-1.9-4.965-4.247l-.3-17.971-1.93-114.709c0-2.347,3.215-6.926,9.1-6.58l262.281-5.839a13.667,13.667,0,0,1,9.162,3.141A10.018,10.018,0,0,1,924.578,1352.9Z" transform="translate(-640.361 -1341.893)" fill="url(#linear-gradient-5)"/>
        <path id="Tracé_207" data-name="Tracé 207" d="M970.851,1541.553c0,2.189-2.142,3.981-4.76,3.981H708.663c-2.618,0-4.76-1.792-4.76-3.981l-2.142-123.834c0-2.189,3.082-6.464,8.729-6.143l251.586-5.449a13.34,13.34,0,0,1,8.788,2.928,9.248,9.248,0,0,1,3.521,7.342Z" transform="translate(-695.965 -1400.06)" fill="#4361ee" opacity="0.2"/>
        <g id="Groupe_97" data-name="Groupe 97" transform="translate(138.682 21.661)">
          <path id="Tracé_208" data-name="Tracé 208" d="M1903.947,1575.085c-.056,2.04-1.14,3.719-2.423,3.726l-76.3.454c-1.445.008-2.611-1.779-2.6-3.949h0c.01-2.173,1.194-3.973,2.641-3.973h76.454c1.286,0,2.281,1.7,2.225,3.741Z" transform="translate(-1822.573 -1571.344)" fill="#7d97f4"/>
          <path id="Tracé_209" data-name="Tracé 209" d="M1906.138,2509.82c-.055,2.04-1.124,3.649-2.389,3.656l-75.23.419c-1.425.009-2.574-1.657-2.564-3.827h0c.01-2.173,1.177-3.85,2.6-3.85h75.385c1.268,0,2.249,1.559,2.194,3.6Z" transform="translate(-1825.587 -2417.962)" fill="#7d97f4"/>
          <path id="Tracé_210" data-name="Tracé 210" d="M1903.131,2360.61c-.055,2.04-1.128,3.635-2.4,3.643l-75.532.412c-1.43.008-2.584-1.632-2.574-3.8h0c.009-2.173,1.182-3.826,2.615-3.826h75.688c1.273,0,2.258,1.531,2.2,3.573Z" transform="translate(-1822.572 -2282.864)" fill="#7d97f4"/>
          <path id="Tracé_211" data-name="Tracé 211" d="M1903.943,1745.467c-.055,1.7-1.94,3.1-4.212,3.119l-72.778.607c-2.4.02-4.338-1.386-4.322-3.142l0-.2c.017-1.758,1.984-3.2,4.39-3.21l72.908-.436c2.277-.013,4.074,1.36,4.019,3.066Z" transform="translate(-1822.577 -1726.078)" fill="#7d97f4"/>
          <path id="Tracé_212" data-name="Tracé 212" d="M1903.151,1907.964c-.066,1.69-1.954,3.072-4.221,3.089l-72.581.548c-2.4.018-4.317-1.377-4.29-3.117l0-.2c.028-1.742,2-3.166,4.4-3.179l72.709-.378c2.271-.012,4.056,1.351,3.99,3.042Z" transform="translate(-1822.059 -1873.259)" fill="#7d97f4"/>
        </g>
        <path id="Tracé_213" data-name="Tracé 213" d="M2852.537,2092.194h-24.742a.313.313,0,0,1,0-.626h24.742c3.044,0,5.615-2.829,5.615-6.177v-76.132a.313.313,0,1,1,.626,0v76.132C2858.778,2089.078,2855.92,2092.194,2852.537,2092.194Z" transform="translate(-2581.335 -1945.973)" fill="#bdd0fb"/>
        <path id="Tracé_214" data-name="Tracé 214" d="M702.782,1510.894a.313.313,0,0,1-.313-.313v-44.012a7.727,7.727,0,0,1,7.861-7.939h19.68a.313.313,0,1,1,0,.626H710.33a7.036,7.036,0,0,0-7.235,7.313v44.012A.313.313,0,0,1,702.782,1510.894Z" transform="translate(-696.606 -1447.609)" fill="#bdd0fb"/>
        <g id="Groupe_103" data-name="Groupe 103" transform="translate(242.146 31.285)">
          <path id="Tracé_215" data-name="Tracé 215" d="M2807.14,1701l-16.468.147a5.529,5.529,0,0,1-5.527-5.543l-.041-16.777a5.489,5.489,0,0,1,5.5-5.537l16.469.167a5.516,5.516,0,0,1,5.364,5.542l.04,16.465A5.476,5.476,0,0,1,2807.14,1701Z" transform="translate(-2785.104 -1673.288)" fill="#ffd933"/>
          <path id="Tracé_216" data-name="Tracé 216" d="M2821.437,1714.939l-14.146.111a5.1,5.1,0,0,1-5.093-5.117l-.035-14.4a5.057,5.057,0,0,1,5.067-5.111l14.146.128a5.085,5.085,0,0,1,4.96,5.116l.034,14.158A5.047,5.047,0,0,1,2821.437,1714.939Zm-14.2-23.8a4.354,4.354,0,0,0-4.361,4.4l.035,14.389a4.387,4.387,0,0,0,4.383,4.406l14.146-.1a4.345,4.345,0,0,0,4.251-4.4l-.034-14.165a4.378,4.378,0,0,0-4.273-4.406Z" transform="translate(-2800.552 -1688.809)" fill="#4361ee"/>
          <g id="Groupe_101" data-name="Groupe 101" transform="translate(1.968 8.156)">
            <g id="Groupe_98" data-name="Groupe 98">
              <path id="Tracé_217" data-name="Tracé 217" d="M2805.956,1763.479l23.478.1Z" transform="translate(-2805.955 -1763.121)" fill="#4361ee"/>
              <path id="Tracé_218" data-name="Tracé 218" d="M2829.427,1760.5l-23.477-.1,0-.716,23.477.107Z" transform="translate(-2805.948 -1759.688)" fill="#4361ee"/>
            </g>
            <g id="Groupe_99" data-name="Groupe 99" transform="translate(0.013 5.412)">
              <path id="Tracé_219" data-name="Tracé 219" d="M2806.094,1820.811l23.478.014Z" transform="translate(-2806.094 -1820.453)" fill="#4361ee"/>
              <path id="Tracé_220" data-name="Tracé 220" d="M2829.567,1817.744l-23.478-.009v-.716l23.477.02Z" transform="translate(-2806.088 -1817.02)" fill="#4361ee"/>
            </g>
            <g id="Groupe_100" data-name="Groupe 100" transform="translate(0.026 10.758)">
              <path id="Tracé_221" data-name="Tracé 221" d="M2806.235,1877.448l23.477-.073Z" transform="translate(-2806.235 -1877.024)" fill="#4361ee"/>
              <path id="Tracé_222" data-name="Tracé 222" d="M2829.706,1874.35l-23.477.079,0-.716,23.477-.067Z" transform="translate(-2806.227 -1873.646)" fill="#4361ee"/>
            </g>
          </g>
          <g id="Groupe_102" data-name="Groupe 102" transform="translate(7.114 4.233)">
            <path id="Tracé_223" data-name="Tracé 223" d="M2873.83,1740.541l-6.56.038a3.073,3.073,0,0,1-3.055-3.084l-.031-12.524a3.05,3.05,0,0,1,3.04-3.08l6.56.046a3.085,3.085,0,0,1,3.015,3.1l.03,12.416A3.062,3.062,0,0,1,2873.83,1740.541Z" transform="translate(-2863.833 -1721.536)" fill="#4361ee"/>
            <path id="Tracé_224" data-name="Tracé 224" d="M2870.461,1737.481l-6.56.04a3.419,3.419,0,0,1-3.407-3.438l-.031-12.527a3.394,3.394,0,0,1,3.39-3.434l6.56.048a3.433,3.433,0,0,1,3.36,3.452l.031,12.412A3.408,3.408,0,0,1,2870.461,1737.481Zm-6.6-18.647a2.694,2.694,0,0,0-2.69,2.726l.031,12.521a2.714,2.714,0,0,0,2.7,2.729l6.56-.036a2.7,2.7,0,0,0,2.656-2.736l-.03-12.418a2.725,2.725,0,0,0-2.668-2.74Z" transform="translate(-2860.464 -1718.122)" fill="#4361ee"/>
          </g>
        </g>
      </g>
      <rect id="Rectangle_29" data-name="Rectangle 29" width="86.48" height="93.337" rx="12" transform="translate(16.083 24.858)" fill="#fff"/>
      <g id="Groupe_108" data-name="Groupe 108" transform="translate(16.049 24.858)">
        <g id="Groupe_107" data-name="Groupe 107" clip-path="url(#clip-path)">
          <g id="Groupe_106" data-name="Groupe 106" transform="translate(-4.225 4.459)">
            <path id="Tracé_225" data-name="Tracé 225" d="M1629.313,2278.646a117.666,117.666,0,0,0-9.5-28.832l-9.044,31.359s.156.353.416,1.14l15.059-.032A3.113,3.113,0,0,0,1629.313,2278.646Z" transform="translate(-1530.986 -2193.42)" fill="url(#linear-gradient-6)"/>
            <path id="Tracé_226" data-name="Tracé 226" d="M785.649,2282.313c.991-3.541,1.753-5.821,1.753-5.821l-14.781-26.679s-3.358,4-6.954,27.015a4.694,4.694,0,0,0,4.595,5.485Z" transform="translate(-765.606 -2193.42)" fill="url(#linear-gradient-7)"/>
            <path id="Tracé_227" data-name="Tracé 227" d="M1072.614,2164.644l-4.008-42.017c-17.9-6.616-40.477.789-40.477.789l-1.858,41.228Z" transform="translate(-1001.662 -2075.75)" fill="#ffd933"/>
            <g id="Groupe_105" data-name="Groupe 105" transform="translate(30.192)">
              <path id="Tracé_228" data-name="Tracé 228" d="M1166.962,2008.615l-.336,11.088a2.515,2.515,0,0,0,1.681,2.449c2.835,1,8.7,2.52,14.266.529a2.509,2.509,0,0,0,1.624-2.73l-1.667-11.337Z" transform="translate(-1158.958 -1974.991)" fill="url(#linear-gradient-8)"/>
              <path id="Tracé_229" data-name="Tracé 229" d="M1109.731,1670.36s1.946,19.849,6.227,24.909c0,0,12.844,1.168,17.514-1.557a73.8,73.8,0,0,0,2.919-23.158s.638-12.042-12.649-13.038C1108.175,1656.348,1109.731,1670.36,1109.731,1670.36Z" transform="translate(-1107.397 -1656.975)" fill="url(#linear-gradient-9)"/>
              <path id="Tracé_230" data-name="Tracé 230" d="M1378.126,1826.593s1.168-3.5,3.114-3.5-.389,9.341-3.114,9.341Z" transform="translate(-1350.493 -1806.981)" fill="url(#linear-gradient-10)"/>
              <path id="Tracé_231" data-name="Tracé 231" d="M1089.525,1840.531s-1.629-3.313-3.557-3.051,1.645,9.2,4.345,8.836Z" transform="translate(-1085.419 -1819.999)" fill="url(#linear-gradient-11)"/>
              <path id="Tracé_232" data-name="Tracé 232" d="M1112.815,1789.919s1.528,19.093,6.743,25.753a2.588,2.588,0,0,0,1.9,1.006c2.662.142,9.467.4,13.3-.452a2.828,2.828,0,0,0,2.055-1.977,26.4,26.4,0,0,0,1.086-3.9c.13-2.96.806-11.168,1.677-22.357l-.8-1.261c-.241,2.587-1.826,19.063-4.336,19.445a3.744,3.744,0,0,1-1.127-.036c-1.523-.307-1.989-1.507-3.048-2.287a6.066,6.066,0,0,0-6.8.335,8.848,8.848,0,0,1-2.489,1.906,5.166,5.166,0,0,1-1.841.436c-1.835-.077-3.659-7.3-4.683-17.121Z" transform="translate(-1110.229 -1774.056)" fill="url(#linear-gradient-12)"/>
              <path id="Tracé_233" data-name="Tracé 233" d="M1123.17,1660.874s-9.916,8.6-20.721,8.571c0,0-6.134-13.824,5.931-16.123s12.454.657,12.454.657,14.109-2.923,7.833,13.971Z" transform="translate(-1099.429 -1652.447)" fill="url(#linear-gradient-13)"/>
            </g>
            <path id="Tracé_234" data-name="Tracé 234" d="M852.892,2177.347h10.623l5.1-43.441c-13.961,1.27-28.711,10.942-28.711,10.942l10.983,26.647A52.624,52.624,0,0,1,852.892,2177.347Z" transform="translate(-832.889 -2088.454)" fill="url(#linear-gradient-14)"/>
            <path id="Tracé_235" data-name="Tracé 235" d="M1397.383,2169.2a70.158,70.158,0,0,1,2.141-7.126l6.141-25.373c-12.234-9.557-31.369-11.791-31.369-11.791l7.151,44.291Z" transform="translate(-1316.833 -2080.307)" fill="url(#linear-gradient-15)"/>
          </g>
        </g>
      </g>
    </g>
  </g>
</svg>
