<svg id="info" xmlns="http://www.w3.org/2000/svg" width="24" height="24" viewBox="0 0 24 24">
  <path id="Tracé_1618" data-name="Tracé 1618" d="M12,0A12,12,0,1,0,24,12,12,12,0,0,0,12,0Zm0,22A10,10,0,1,1,22,12,10,10,0,0,1,12,22Z" fill="#4361ee"/>
  <path id="Tracé_1619" data-name="Tracé 1619" d="M12,10H11a1,1,0,0,0,0,2h1v6a1,1,0,0,0,2,0V12A2,2,0,0,0,12,10Z" fill="#4361ee"/>
  <circle id="Ellipse_37" data-name="Ellipse 37" cx="1.5" cy="1.5" r="1.5" transform="translate(10.5 5)" fill="#4361ee"/>
</svg>
