<svg xmlns="http://www.w3.org/2000/svg" width="245.796" height="282.39" viewBox="0 0 245.796 282.39">
  <g id="Group_135" data-name="Group 135" transform="translate(-197.742 -1795)">
    <path id="Path_236" data-name="Path 236" d="M365.824,2039.522s-97.224-7.153-108.915-54.692,14.22-54.008,23.067-80.635-31.283-42.331-4.424-78.56,66.47-36.861,83.162-19.8,35.934-10.428,66.918,5.056S464.2,1857.664,454.4,1882.1s30.371,47.807,35.409,75.514S449.384,2051.738,365.824,2039.522Z" transform="translate(-47.399 0)" fill="#4361ee" opacity="0.5"/>
    <path id="Path_237" data-name="Path 237" d="M339.465,2662.027h58.26l4.833-13.011a18.4,18.4,0,0,1,9.695-10.342,46.344,46.344,0,0,0,15.4-11.554,107.02,107.02,0,0,0,16.4-24.924l-36.106-.177s3.25-20.2-14.7-47.02a15.185,15.185,0,0,1-2.5-9.759l1.7-19.563s12.194-13.628,4.713-30.534c0,0-7.154-9.906-9.993-6.28,0,0-21.611,51.462-23.578,59.115s-4.591,12.461-1.968,36.51a145.737,145.737,0,0,1,.935,16.041,56.929,56.929,0,0,1-5.472,24.229Z" transform="translate(-119.551 -584.637)" fill="#ffc0bb"/>
    <path id="Path_238" data-name="Path 238" d="M393.8,3223.355c-5.408-6-12.92-5.056-20.82-7.8s-10.434-22.483-10.434-22.483v0c.013.745.019,1.469.017,2.166a56.926,56.926,0,0,1-5.472,24.229l-17.629,37.269h58.26l4.833-13.012a18.4,18.4,0,0,1,9.695-10.341,45.344,45.344,0,0,0,12.937-8.971C409.143,3231.158,399.211,3229.359,393.8,3223.355Z" transform="translate(-119.551 -1179.347)" fill="#ffc0bb" opacity="0.2" style="mix-blend-mode: multiply;isolation: isolate"/>
    <path id="Path_239" data-name="Path 239" d="M1385.8,2045.954a2.013,2.013,0,0,0-2.466-1.494,2.961,2.961,0,0,0-3.56-1.573,3.647,3.647,0,0,0-6.551.637,2.5,2.5,0,0,0-3.719,2.186c0,.082,0,.163.012.243Z" transform="translate(-988.44 -207.617)" fill="#fff"/>
    <path id="Path_240" data-name="Path 240" d="M988.021,1981a5.252,5.252,0,0,0-6.438-3.9,7.731,7.731,0,0,0-9.3-4.106,9.522,9.522,0,0,0-17.1,1.664,6.532,6.532,0,0,0-9.708,5.708c0,.214.011.425.031.634Z" transform="translate(-630.751 -146.262)" fill="#fff"/>
    <path id="Path_241" data-name="Path 241" d="M417.19,2152.086a4.395,4.395,0,0,0-5.388-3.264,6.472,6.472,0,0,0-7.78-3.437,7.97,7.97,0,0,0-14.316,1.393,5.467,5.467,0,0,0-8.125,4.778c0,.179.009.355.026.531Z" transform="translate(-155.078 -292.316)" fill="#fff"/>
    <g id="Group_117" data-name="Group 117" transform="translate(248.491 1843.608)">
      <path id="Path_242" data-name="Path 242" d="M522.122,2109.815c13.394,21.133,46.406,39.967,46.406,39.967s-26.242-2.131-39.265-19.09l4.722-3.911s-3.753.363-6.9.726A35.527,35.527,0,0,1,522.122,2109.815Z" transform="translate(-522.122 -2109.17)" fill="#e0be2b"/>
      <path id="Path_243" data-name="Path 243" d="M557.265,2115.081c-2.037.924-5.05,2.332-5.05,2.332l2.9-4.171a33.824,33.824,0,0,0-10.789-5.531c-1.495,2.176-3.251,4.608-3.251,4.608l-.349-5.552a51.5,51.5,0,0,0-18.607-.426c13.394,21.133,46.406,39.967,46.406,39.967C568.378,2130.78,563.65,2121.084,557.265,2115.081Z" transform="translate(-522.122 -2105.696)" fill="#ffd933"/>
    </g>
    <g id="Group_118" data-name="Group 118" transform="translate(243.573 1869.722)">
      <path id="Path_244" data-name="Path 244" d="M490.687,2276.963a31.119,31.119,0,0,1,11.821-4.072c1.17,1.336,2.606,2.907,2.606,2.907l.08-3.146c14.929-.716,27.516,8.687,27.516,8.687-8.543,5.2-15.895,6.655-21.952,6.223-.382-1.1-.925-2.737-.925-2.737l-1.014,2.532a27.545,27.545,0,0,1-7.717-2.291c.537-1.313,1.1-2.813,1.1-2.813L499.02,2284A28.279,28.279,0,0,1,490.687,2276.963Z" transform="translate(-490.687 -2272.614)" fill="#e0be2b"/>
      <path id="Path_245" data-name="Path 245" d="M510.757,2308.944c-.382-1.1-.925-2.737-.925-2.737l-1.014,2.532a27.545,27.545,0,0,1-7.717-2.291c.537-1.313,1.1-2.814,1.1-2.814l-3.183,1.744a28.282,28.282,0,0,1-8.333-7.034c17.369-1.985,42.022,4.376,42.022,4.376C524.167,2307.919,516.815,2309.376,510.757,2308.944Z" transform="translate(-490.687 -2293.995)" fill="#ffd933"/>
    </g>
    <g id="Group_119" data-name="Group 119" transform="translate(383.82 1865.927)">
      <path id="Path_246" data-name="Path 246" d="M1423.515,2254.326l-1.26,9.491,6.742-4.924,20.634-10.541-15.96,1.461s-8.131,1.975-8.571,2.374A19.741,19.741,0,0,0,1423.515,2254.326Z" transform="translate(-1416.76 -2248.353)" fill="#e0be2a"/>
      <path id="Path_247" data-name="Path 247" d="M1387.13,2248.693l33.184-.242-26.116,5.974Z" transform="translate(-1387.13 -2248.435)" fill="#ffd933"/>
      <path id="Path_248" data-name="Path 248" d="M1453.608,2263.973l-8.695-6.985,24.144-8.538Z" transform="translate(-1435.873 -2248.435)" fill="#ffd933"/>
    </g>
    <g id="Group_123" data-name="Group 123" transform="translate(359.954 1875.674)">
      <g id="Group_120" data-name="Group 120" transform="translate(26.991)">
        <path id="Path_249" data-name="Path 249" d="M1407.313,2311.827a10.011,10.011,0,0,1,2.215-.582l-.062-.59a10.517,10.517,0,0,0-2.361.617Z" transform="translate(-1407.104 -2310.655)" fill="#65cefe"/>
      </g>
      <g id="Group_121" data-name="Group 121" transform="translate(6.288 3.016)">
        <path id="Path_250" data-name="Path 250" d="M1274.775,2380.948a37.42,37.42,0,0,0,3.842-2.229l.329.493a37.918,37.918,0,0,1-3.9,2.265Zm7.338-4.95a24.07,24.07,0,0,0,2.982-3.261l.473.357a24.7,24.7,0,0,1-3.056,3.342Zm5.272-7.032c.29-.61.558-1.245.795-1.889.268-.729.505-1.491.705-2.264l.573.148c-.2.793-.448,1.573-.723,2.321-.243.661-.517,1.313-.816,1.939Zm2.393-12.959.592-.014a38.265,38.265,0,0,1-.146,4.511l-.59-.056A37.713,37.713,0,0,0,1289.779,2356.007Zm-.843-8.883.587-.084c.248,1.734.425,3.151.557,4.459l-.59.06C1289.359,2350.259,1289.183,2348.85,1288.936,2347.124Zm-.663-4.462a21.816,21.816,0,0,1-.224-4.5l.591.036a21.2,21.2,0,0,0,.219,4.374l0,.034-.587.081Zm.745-8.951a10.76,10.76,0,0,1,2.573-3.779l.407.431a10.17,10.17,0,0,0-2.431,3.573Z" transform="translate(-1274.775 -2329.932)" fill="#65cefe"/>
      </g>
      <g id="Group_122" data-name="Group 122" transform="translate(0 55.852)">
        <path id="Path_251" data-name="Path 251" d="M1234.777,2669.029c.763-.265,1.515-.543,2.234-.827l-.217-.551c-.713.281-1.456.556-2.211.818Z" transform="translate(-1234.583 -2667.651)" fill="#65cefe"/>
      </g>
    </g>
    <g id="Group_124" data-name="Group 124" transform="translate(356.201 1865.243)">
      <path id="Path_252" data-name="Path 252" d="M1211.468,2248.655s12.34-8.259,15.158-2.818-16.032,24.7-16.032,24.7Z" transform="translate(-1210.594 -2243.981)" fill="#eaa0a0"/>
      <path id="Path_253" data-name="Path 253" d="M1211.468,2478.671s12.34-8.259,15.158-2.818-16.032,24.7-16.032,24.7Z" transform="translate(-1210.594 -2438.012)" fill="#eaa0a0"/>
      <path id="Path_254" data-name="Path 254" d="M1211.468,2635.386s12.34-8.259,15.158-2.818-16.032,24.7-16.032,24.7Z" transform="translate(-1210.594 -2570.209)" fill="#eaa0a0"/>
    </g>
    <path id="Path_255" data-name="Path 255" d="M747.18,2214.695H679.435a9.135,9.135,0,0,0-9.135,9.135v138.452a9.137,9.137,0,0,0,9.135,9.135H747.18a9.135,9.135,0,0,0,9.135-9.135V2223.83A9.137,9.137,0,0,0,747.18,2214.695Z" transform="translate(-398.627 -354.034)" fill="#063e70"/>
    <path id="Path_256" data-name="Path 256" d="M649.652,2858.116s-12.253,30-11.064,35.668,8.624,13.255,26.868,10.727a280.173,280.173,0,0,0,30.854-5.908s.763-40.481,0-42.534-33.565-16.623-34.855-16.623S649.652,2858.116,649.652,2858.116Z" transform="translate(-371.807 -881.043)" fill="#ffc0bb" opacity="0.2" style="mix-blend-mode: multiply;isolation: isolate"/>
    <rect id="Rectangle_34" data-name="Rectangle 34" width="77.158" height="131.822" transform="translate(276.101 1873.111)" fill="#fff"/>
    <path id="Path_257" data-name="Path 257" d="M688.016,2785.726h-67.01a4.192,4.192,0,0,0-4.191,4.191v27.653a4.191,4.191,0,0,0,4.191,4.191h52.757c2.135,2.98,6.007,8.315,6.348,8.315.32,0-.3-5.039-.73-8.315h8.635a4.191,4.191,0,0,0,4.191-4.191v-27.653A4.191,4.191,0,0,0,688.016,2785.726Z" transform="translate(-353.509 -835.728)" fill="#daeef7" opacity="0.3" style="mix-blend-mode: multiply;isolation: isolate"/>
    <path id="Path_258" data-name="Path 258" d="M818.006,2385.259H746.67a4.191,4.191,0,0,0-4.191,4.191v29.722a4.191,4.191,0,0,0,4.191,4.191h7.408c-.43,3.272-.993,7.966-.684,7.966.329,0,3.924-4.937,6.1-7.966h58.515a4.191,4.191,0,0,0,4.191-4.191V2389.45A4.191,4.191,0,0,0,818.006,2385.259Z" transform="translate(-459.514 -497.914)" fill="#daeef7" opacity="0.3" style="mix-blend-mode: multiply;isolation: isolate"/>
    <rect id="Rectangle_35" data-name="Rectangle 35" width="33.017" height="1.652" rx="0.826" transform="translate(298.235 1867.317)" fill="#fff"/>
    <path id="Path_259" data-name="Path 259" d="M554.291,2537.484a5.759,5.759,0,0,0,1.518,2.582l1.251-14.388s8.971-10.025,6.8-23.545a20.2,20.2,0,0,0-6.565-11.983c-2.01-1.767-4.217-2.947-5.518-1.285,0,0-10.163,24.2-17.184,41.878Z" transform="translate(-284.154 -584.637)" fill="#ffc0bb"/>
    <path id="Path_260" data-name="Path 260" d="M670.332,2739.876h-67.01a4.191,4.191,0,0,0-4.191,4.191v27.654a4.191,4.191,0,0,0,4.191,4.191h52.757c2.135,2.979,6.006,8.315,6.348,8.315.32,0-.3-5.039-.73-8.315h8.635a4.191,4.191,0,0,0,4.191-4.191v-27.654A4.191,4.191,0,0,0,670.332,2739.876Z" transform="translate(-338.592 -797.051)" fill="#4361ee"/>
    <rect id="Rectangle_36" data-name="Rectangle 36" width="77.158" height="7.797" transform="translate(276.101 1997.135)" fill="#4361ee"/>
    <rect id="Rectangle_37" data-name="Rectangle 37" width="77.158" height="6.996" transform="translate(276.101 1873.111)" fill="#4361ee"/>
    <path id="Path_261" data-name="Path 261" d="M617.477,2503.079c2.808-1.292,4.274-8.6,4.8-11.882-2.254-2.267-5.08-4.307-6.626-2.332,0,0-2.238,5.329-5.339,12.813C612.431,2502.857,615.377,2504.044,617.477,2503.079Z" transform="translate(-348.023 -584.637)" fill="#eaa0a0"/>
    <path id="Path_262" data-name="Path 262" d="M1049.852,2849.211s-10.421.875-10.785,3.644.437,7.652,10.275,8.6h10.19s-3.049-8.453-2.9-8.745S1049.852,2849.211,1049.852,2849.211Z" transform="translate(-709.644 -889.281)" fill="#efadab"/>
    <path id="Path_263" data-name="Path 263" d="M993.484,2722.671a2.827,2.827,0,0,0-1.1,3.915c4.8,8.271,23.864,41.14,25.583,43.813,1.967,3.061,6.777,10.275,22.737,13.992s22.518,14.429,22.518,14.429h49.19s-11.587-18.365-21.206-66.024c0,0-7.433-39.571-21.425-38.26,0,0-8.527-8.963-16.834-7.214,0,0-15.741-9.4-24.7-9.4l-21.53-25.445a6.229,6.229,0,0,0-8.507-1.007,4.077,4.077,0,0,0-1.663,2.622c-.656,4.154,4.81,14.648,13.555,27.328s30.389,52.907,20.988,70.615a95.079,95.079,0,0,1-17.927-18.8C1006.2,2723.53,998.015,2720.266,993.484,2722.671Z" transform="translate(-669.996 -721.43)" fill="#ffc0bb"/>
    <path id="Path_264" data-name="Path 264" d="M1223.925,2827.291a89.652,89.652,0,0,1,8.063,7.885,93.064,93.064,0,0,1,10.26,13.483c3.193,5.262,5.3,9.875,6.3,15.67l-.064.013c-1.147-5.443-4.144-11.306-6.754-15.356a113.671,113.671,0,0,0-10.127-13.47c-2.29-2.641-5.193-5.761-7.718-8.177Z" transform="translate(-865.6 -870.79)" fill="#eaa0a0"/>
    <path id="Path_265" data-name="Path 265" d="M1380.49,2886.881a24.292,24.292,0,0,1,6.229,4.724,30.115,30.115,0,0,1,4.72,6.3,30.771,30.771,0,0,1,2.955,7.293,29.753,29.753,0,0,1,.989,7.754l-.065,0a38.187,38.187,0,0,0-1.418-7.612,34.526,34.526,0,0,0-3.032-7.117,33.708,33.708,0,0,0-4.53-6.27,29.1,29.1,0,0,0-5.881-5.017Z" transform="translate(-997.682 -921.057)" fill="#eaa0a0"/>
    <path id="Path_266" data-name="Path 266" d="M1487.851,2932.258a21.674,21.674,0,0,1,5.146,6.167,27.788,27.788,0,0,1,2.939,7.5,23.329,23.329,0,0,1,.686,5.3l-.065.009a39.594,39.594,0,0,0-1.117-5.174,36.181,36.181,0,0,0-2.986-7.34,29.332,29.332,0,0,0-4.633-6.414Z" transform="translate(-1088.249 -959.335)" fill="#eaa0a0"/>
    <path id="Path_267" data-name="Path 267" d="M1003.418,3123.152c.436-2.213-2.143-5.723-4.484-8.371a5.442,5.442,0,0,0-5.8-1.58,2.831,2.831,0,0,0-.749,3.689c1.289,2.222,3.608,6.221,6.345,10.933C1000.78,3126.78,1003.014,3125.2,1003.418,3123.152Z" transform="translate(-670 -1111.734)" fill="#eaa0a0"/>
    <path id="Path_268" data-name="Path 268" d="M1042.562,2663.92c1.244-.25,6.886-2.125,6.541-3.154h0l-5.566-6.578a6.338,6.338,0,0,0-4.242-2.217h0l-.026,0c-.045,0-.147-.011-.29-.011a2.82,2.82,0,0,0-2.988,2.234c-.4,2,2.9,6.845,4.361,8.862A2.194,2.194,0,0,0,1042.562,2663.92Z" transform="translate(-707.078 -722.888)" fill="#eaa0a0"/>
    <path id="Path_269" data-name="Path 269" d="M412.366,3378.509c6.165,3.788,26.011,15.112,46.532,17.527a1.8,1.8,0,0,1,1.692,2.2l-3.585,9.6a1.594,1.594,0,0,1-1.753.909c-6.048-.734-31-4.49-48.558-18.072a1.573,1.573,0,0,1-.626-1.762l3.659-9.8A1.786,1.786,0,0,1,412.366,3378.509Z" transform="translate(-175.666 -1335.497)" fill="#064c91"/>
    <path id="Path_270" data-name="Path 270" d="M432.443,3415.613l-.068-.025a.7.7,0,0,1-.408-.9l1.1-2.957a.7.7,0,0,1,.9-.408l.068.025a.7.7,0,0,1,.408.9l-1.1,2.956A.7.7,0,0,1,432.443,3415.613Z" transform="translate(-197.543 -1363.418)" fill="#063e70"/>
    <path id="Path_271" data-name="Path 271" d="M456.037,3430.154l-.068-.025a.7.7,0,0,1-.409-.9l1.1-2.956a.7.7,0,0,1,.895-.409l.068.026a.7.7,0,0,1,.408.9l-1.1,2.956A.7.7,0,0,1,456.037,3430.154Z" transform="translate(-217.446 -1375.684)" fill="#063e70"/>
    <path id="Path_272" data-name="Path 272" d="M479.691,3444.64h0a.733.733,0,0,1-.43-.942l1.078-2.888a.732.732,0,0,1,.942-.43h0a.731.731,0,0,1,.429.941l-1.078,2.889A.732.732,0,0,1,479.691,3444.64Z" transform="translate(-237.437 -1387.924)" fill="#063e70"/>
    <path id="Path_273" data-name="Path 273" d="M503.989,3456.342l-.068-.025a.7.7,0,0,1-.408-.9l1.1-2.956a.7.7,0,0,1,.895-.409l.068.025a.7.7,0,0,1,.408.9l-1.1,2.956A.7.7,0,0,1,503.989,3456.342Z" transform="translate(-257.896 -1397.775)" fill="#063e70"/>
    <path id="Path_274" data-name="Path 274" d="M527.915,3469.995l-.068-.025a.7.7,0,0,1-.408-.9l1.1-2.956a.7.7,0,0,1,.9-.408l.068.025a.7.7,0,0,1,.408.9l-1.1,2.956A.7.7,0,0,1,527.915,3469.995Z" transform="translate(-278.079 -1409.292)" fill="#063e70"/>
    <path id="Rectangle_38" data-name="Rectangle 38" d="M.731,0H3.815a.732.732,0,0,1,.732.732v0a.732.732,0,0,1-.732.732H.732A.732.732,0,0,1,0,.732v0A.731.731,0,0,1,.731,0Z" transform="translate(253.024 2062.127) rotate(-69.501)" fill="#063e70"/>
    <path id="Rectangle_39" data-name="Rectangle 39" d="M.732,0H3.815a.732.732,0,0,1,.732.732v0a.732.732,0,0,1-.732.732H.732A.732.732,0,0,1,0,.732v0A.732.732,0,0,1,.732,0Z" transform="translate(257.009 2063.615) rotate(-69.502)" fill="#063e70"/>
    <path id="Path_275" data-name="Path 275" d="M604.356,3498.568h0a.731.731,0,0,1-.43-.941l1.078-2.888a.732.732,0,0,1,.942-.43h0a.732.732,0,0,1,.43.942l-1.078,2.888A.731.731,0,0,1,604.356,3498.568Z" transform="translate(-342.598 -1433.415)" fill="#063e70"/>
    <path id="Path_276" data-name="Path 276" d="M631.375,3503.936h0a.732.732,0,0,1-.43-.941l1.079-2.889a.732.732,0,0,1,.942-.43h0a.732.732,0,0,1,.429.942l-1.078,2.888A.732.732,0,0,1,631.375,3503.936Z" transform="translate(-365.39 -1437.942)" fill="#063e70"/>
    <path id="Path_277" data-name="Path 277" d="M657.661,3511.167l-.068-.025a.7.7,0,0,1-.408-.9l1.1-2.956a.7.7,0,0,1,.9-.408l.068.025a.7.7,0,0,1,.408.9l-1.1,2.956A.7.7,0,0,1,657.661,3511.167Z" transform="translate(-387.527 -1444.024)" fill="#063e70"/>
    <path id="Rectangle_40" data-name="Rectangle 40" d="M.731,0H3.815a.732.732,0,0,1,.732.732v0a.732.732,0,0,1-.732.732H.732A.732.732,0,0,1,0,.732v0A.731.731,0,0,1,.731,0Z" transform="translate(273.688 2067.591) rotate(-69.502)" fill="#063e70"/>
    <path id="Path_278" data-name="Path 278" d="M712.349,3520.267h0a.732.732,0,0,1-.43-.941l1.078-2.889a.733.733,0,0,1,.942-.43h0a.732.732,0,0,1,.43.942l-1.078,2.888A.732.732,0,0,1,712.349,3520.267Z" transform="translate(-433.695 -1451.718)" fill="#063e70"/>
    <path id="Path_279" data-name="Path 279" d="M488.15,3431.905l.017-.045a.917.917,0,0,1-.194-.047L483.117,3430a.969.969,0,0,1-.519-1.264l4.379-11.729a.969.969,0,0,1,1.22-.615l4.857,1.813a.906.906,0,0,1,.554.638q.572.249,1.154.5a2.1,2.1,0,0,0-1.28-2.282l-4.857-1.813a2.151,2.151,0,0,0-2.709,1.365l-4.379,11.729a2.15,2.15,0,0,0,1.152,2.806l4.857,1.814a2.045,2.045,0,0,0,2.1-.452Q488.9,3432.213,488.15,3431.905Z" transform="translate(-239.268 -1366.657)" fill="#ffcb83"/>
    <path id="Path_280" data-name="Path 280" d="M500.941,3458.405l-2.113-.789a.793.793,0,0,0-.553,1.482l2.113.788Z" transform="translate(-253.125 -1402.465)" fill="#eefbff"/>
    <path id="Path_281" data-name="Path 281" d="M1204.772,3373.945h49.191s-7.6-12.041-15.595-41.924c-3.51,22-22.874,20.735-30.558,21.956-8.847,1.405-43.195-5.756-48.007-8.012,2.14,3.266,7.214,10,22.451,13.551C1198.214,3363.233,1204.772,3373.945,1204.772,3373.945Z" transform="translate(-811.548 -1296.556)" fill="#ffc0bb" opacity="0.2" style="mix-blend-mode: multiply;isolation: isolate"/>
    <path id="Path_282" data-name="Path 282" d="M1124.294,2875.087c9.645,15.5,26.949,51.095,18.387,66.626l5.682,5.609s14.357-15.9-8.49-50.98A233.786,233.786,0,0,0,1124.294,2875.087Z" transform="translate(-781.594 -911.109)" fill="#ffc0bb" opacity="0.2" style="mix-blend-mode: multiply;isolation: isolate"/>
    <circle id="Ellipse_20" data-name="Ellipse 20" cx="10.507" cy="10.507" r="10.507" transform="translate(263.689 1970.57) rotate(-85.896)" fill="#fff"/>
    <path id="Path_283" data-name="Path 283" d="M654.932,2816.805s-1.042-4.276,1.44-5.876,5.132-1.968,6.943-1.045c2.51,1.279,3.542,4.734,2.739,6.646l-6.663-1.674Z" transform="translate(-385.48 -855.687)" fill="#031322"/>
    <g id="Group_125" data-name="Group 125" transform="translate(267.77 1955.173)">
      <rect id="Rectangle_41" data-name="Rectangle 41" width="3.085" height="3.08" transform="translate(5.729 10.963)" fill="#ffc0bb"/>
      <path id="Path_284" data-name="Path 284" d="M685.051,2890.729v-1.846h-3.085v1.571A4.524,4.524,0,0,0,685.051,2890.729Z" transform="translate(-676.237 -2877.919)" fill="#f99893"/>
      <path id="Path_285" data-name="Path 285" d="M659.027,2824.256a1.146,1.146,0,0,0-1.034.04,5.493,5.493,0,0,0-10.986,0,1.146,1.146,0,0,0-1.034-.04,1.595,1.595,0,0,0,1.379,2.791,1,1,0,0,0,.231-.158,4.952,4.952,0,0,0,9.833,0,1,1,0,0,0,.231.158,1.595,1.595,0,0,0,1.379-2.791Z" transform="translate(-645.349 -2818.805)" fill="#ffc0bb"/>
      <path id="Path_286" data-name="Path 286" d="M685.407,2876.59a1.926,1.926,0,0,1-3.441.105Z" transform="translate(-676.237 -2867.55)" fill="#fff"/>
    </g>
    <path id="Path_287" data-name="Path 287" d="M654.907,2819.5s4.038-1.223,5.8-3.266a12.138,12.138,0,0,1-.873,2.853c.118.079,4.033-1.825,4.564-3.581s-4-2.388-4-2.388-1.554.661-1.632.7-1.536.209-1.7.582c-.217.483-1.246.526-1.246.526l-.65,1.352-.455,1.422Z" transform="translate(-385.479 -858.834)" fill="#031322"/>
    <path id="Path_288" data-name="Path 288" d="M634.806,2795.054a4.416,4.416,0,0,0,2.99.2c2.356-.724,3.29-.443,3.6-.265a.765.765,0,0,0,.618.081c.232-.077.448-.288.381-.819a4.282,4.282,0,0,0-1.826-3.514A10.529,10.529,0,0,0,634.806,2795.054Z" transform="translate(-368.686 -839.952)" fill="#031322"/>
    <g id="Group_127" data-name="Group 127" transform="translate(271.148 1953.764)">
      <g id="Group_126" data-name="Group 126">
        <path id="Path_289" data-name="Path 289" d="M666.987,2810.989h0a.2.2,0,0,1,.049-.287,5.527,5.527,0,0,1,2.622-.9.2.2,0,0,1,.21.2h0a.2.2,0,0,1-.19.2,5.2,5.2,0,0,0-2.422.839A.2.2,0,0,1,666.987,2810.989Z" transform="translate(-666.946 -2809.797)" fill="#ffcb83"/>
      </g>
    </g>
    <g id="Group_129" data-name="Group 129" transform="translate(286.376 1879.445)">
      <path id="Path_290" data-name="Path 290" d="M839.8,2334.76H768.468a4.191,4.191,0,0,0-4.191,4.191v29.722a4.191,4.191,0,0,0,4.191,4.191h7.408c-.43,3.272-.993,7.965-.684,7.965.329,0,3.924-4.937,6.1-7.965H839.8a4.191,4.191,0,0,0,4.191-4.191v-29.722A4.191,4.191,0,0,0,839.8,2334.76Z" transform="translate(-764.277 -2334.76)" fill="#ffd933"/>
      <circle id="Ellipse_21" data-name="Ellipse 21" cx="10.507" cy="10.507" r="10.507" transform="translate(0.394 25.54) rotate(-70.442)" fill="#fff"/>
      <g id="Group_128" data-name="Group 128" transform="translate(6.66 10.783)">
        <rect id="Rectangle_42" data-name="Rectangle 42" width="3.085" height="3.08" transform="translate(5.729 13.668)" fill="#ffc0bb"/>
        <path id="Path_291" data-name="Path 291" d="M846.551,2492.9v-1.847h-3.085v1.571A4.523,4.523,0,0,0,846.551,2492.9Z" transform="translate(-837.737 -2477.381)" fill="#f99893"/>
        <path id="Path_292" data-name="Path 292" d="M820.526,2426.424a1.15,1.15,0,0,0-1.034.041,5.493,5.493,0,0,0-10.986,0,1.149,1.149,0,0,0-1.034-.041,1.6,1.6,0,0,0,1.379,2.791,1.015,1.015,0,0,0,.231-.158,4.952,4.952,0,0,0,9.833,0,1.013,1.013,0,0,0,.231.158,1.6,1.6,0,0,0,1.379-2.791Z" transform="translate(-806.848 -2418.268)" fill="#ffc0bb"/>
        <path id="Path_293" data-name="Path 293" d="M814.37,2405.187s1.548-1.31,5.067-1.1,4.189,2.049,4.388,4.671l-.206,3.12a13.627,13.627,0,0,1-2.1-3.544s-1.97,2.211-2.829,1.949.325-1.854.325-1.854-4.014,3.454-6.379,3.449c0,0-1.251-4.042.505-5.525,0,0-1.323.063-1.393-.2s.631-.65,1.9-.5c0,0-.906-1.771-.4-1.957S814.37,2405.187,814.37,2405.187Z" transform="translate(-810.975 -2403.682)" fill="#031322"/>
        <path id="Path_294" data-name="Path 294" d="M846.907,2478.758a1.926,1.926,0,0,1-3.441.105Z" transform="translate(-837.737 -2467.013)" fill="#fff"/>
      </g>
      <path id="Path_295" data-name="Path 295" d="M983.731,2391.332H943.74a.912.912,0,0,1-.913-.913h0a.913.913,0,0,1,.913-.913h39.991a.913.913,0,0,1,.913.913h0A.913.913,0,0,1,983.731,2391.332Z" transform="translate(-914.893 -2380.941)" fill="#fff"/>
      <path id="Path_296" data-name="Path 296" d="M951.79,2422.126h-8.05a.913.913,0,0,1-.913-.914h0a.913.913,0,0,1,.913-.912h8.05a.913.913,0,0,1,.913.912h0A.913.913,0,0,1,951.79,2422.126Z" transform="translate(-914.893 -2406.917)" fill="#fff"/>
      <path id="Path_297" data-name="Path 297" d="M1057.073,2422.126h-26.388a.914.914,0,0,1-.913-.914h0a.913.913,0,0,1,.913-.912h26.388a.913.913,0,0,1,.913.912h0A.913.913,0,0,1,1057.073,2422.126Z" transform="translate(-988.236 -2406.917)" fill="#fff"/>
      <path id="Path_298" data-name="Path 298" d="M963.516,2452.918H943.74a.913.913,0,0,1-.913-.913h0a.913.913,0,0,1,.913-.913h19.777a.913.913,0,0,1,.913.913h0A.913.913,0,0,1,963.516,2452.918Z" transform="translate(-914.893 -2432.893)" fill="#fff"/>
      <path id="Path_299" data-name="Path 299" d="M1117.245,2452.918h-15.229a.913.913,0,0,1-.913-.913h0a.913.913,0,0,1,.913-.913h15.229a.912.912,0,0,1,.913.913h0A.912.912,0,0,1,1117.245,2452.918Z" transform="translate(-1048.408 -2432.893)" fill="#fff"/>
      <path id="Path_300" data-name="Path 300" d="M983.731,2483.712H943.74a.913.913,0,0,1-.913-.913h0a.913.913,0,0,1,.913-.913h39.991a.913.913,0,0,1,.913.913h0A.913.913,0,0,1,983.731,2483.712Z" transform="translate(-914.893 -2458.868)" fill="#fff"/>
    </g>
    <path id="Path_301" data-name="Path 301" d="M784.473,2799.012h-12.25a.913.913,0,0,1-.913-.913h0a.912.912,0,0,1,.913-.912h12.25a.913.913,0,0,1,.913.912h0A.913.913,0,0,1,784.473,2799.012Z" transform="translate(-483.835 -845.396)" fill="#fff"/>
    <path id="Path_302" data-name="Path 302" d="M779.906,2829.8h-7.682a.913.913,0,0,1-.913-.913h0a.913.913,0,0,1,.913-.913h7.682a.913.913,0,0,1,.913.913h0A.913.913,0,0,1,779.906,2829.8Z" transform="translate(-483.835 -871.371)" fill="#fff"/>
    <path id="Path_303" data-name="Path 303" d="M853.348,2829.8h-9.874a.913.913,0,0,1-.913-.913h0a.913.913,0,0,1,.913-.913h9.874a.913.913,0,0,1,.913.913h0A.913.913,0,0,1,853.348,2829.8Z" transform="translate(-543.938 -871.371)" fill="#fff"/>
    <path id="Path_304" data-name="Path 304" d="M942.684,2829.8H928.738a.913.913,0,0,1-.913-.913h0a.913.913,0,0,1,.913-.913h13.946a.913.913,0,0,1,.913.913h0A.913.913,0,0,1,942.684,2829.8Z" transform="translate(-615.862 -871.371)" fill="#fff"/>
    <path id="Path_305" data-name="Path 305" d="M899.124,2799.012H877.1a.913.913,0,0,1-.913-.913h0a.913.913,0,0,1,.913-.912h22.025a.913.913,0,0,1,.913.912h0A.913.913,0,0,1,899.124,2799.012Z" transform="translate(-572.302 -845.396)" fill="#fff"/>
    <path id="Path_306" data-name="Path 306" d="M810.657,2890.164H772.224a.913.913,0,0,1-.913-.912h0a.913.913,0,0,1,.913-.913h38.433a.913.913,0,0,1,.913.913h0A.912.912,0,0,1,810.657,2890.164Z" transform="translate(-483.835 -922.287)" fill="#fff"/>
    <path id="Path_307" data-name="Path 307" d="M791.2,2860.6H772.224a.913.913,0,0,1-.913-.913h0a.913.913,0,0,1,.913-.913H791.2a.913.913,0,0,1,.913.913h0A.913.913,0,0,1,791.2,2860.6Z" transform="translate(-483.835 -897.347)" fill="#fff"/>
    <path id="Path_308" data-name="Path 308" d="M939.2,2860.6H924.6a.913.913,0,0,1-.913-.913h0a.913.913,0,0,1,.913-.913H939.2a.913.913,0,0,1,.913.913h0A.913.913,0,0,1,939.2,2860.6Z" transform="translate(-612.375 -897.347)" fill="#fff"/>
    <path id="Path_309" data-name="Path 309" d="M256.949,2376.544c-2-10.126,13.1-13.529,15.534-3.5a15.515,15.515,0,0,1,.405,3.05c.47,12.056-6.822,25.18-14.586,22.97s-3.294-10.444-.941-15.384C258.459,2381.377,257.465,2379.155,256.949,2376.544Z" transform="translate(-47.398 -482.527)" fill="#4361ee"/>
    <path id="Path_310" data-name="Path 310" d="M1602.864,2284.176a8.7,8.7,0,0,0-10.936,5.193,41.2,41.2,0,0,0-2.912,12.337c-.243,7.54,2.756,23.72,14.22,27.716s18.305-6.544,10.673-18.739C1610.649,2305.474,1612.277,2287.462,1602.864,2284.176Z" transform="translate(-1173.601 -412.245)" fill="#4361ee"/>
    <g id="Group_133" data-name="Group 133" transform="translate(218.886 1953.676)">
      <g id="Group_130" data-name="Group 130" transform="translate(5.132 0)">
        <path id="Path_311" data-name="Path 311" d="M367.576,2811.079a10,10,0,0,0-1.878-1.31l.262-.532a10.475,10.475,0,0,1,2,1.394Z" transform="translate(-365.698 -2809.236)" fill="#65cefe"/>
      </g>
      <g id="Group_131" data-name="Group 131" transform="translate(0 4.988)">
        <path id="Path_312" data-name="Path 312" d="M340.843,2895.208a38.039,38.039,0,0,1-2.881-3.473l.479-.349a37.45,37.45,0,0,0,2.836,3.419Zm-5.27-7.311a24.671,24.671,0,0,1-1.714-4.19l.567-.172a24.108,24.108,0,0,0,1.673,4.09Zm-2.584-8.638c-.064-.69-.1-1.4-.1-2.1,0-.8.041-1.613.123-2.427l.589.059c-.08.8-.12,1.592-.12,2.368,0,.686.031,1.375.093,2.048Zm1.419-8.825-.573-.152a38.255,38.255,0,0,1,1.42-4.283l.551.217A37.606,37.606,0,0,0,334.409,2870.434Zm3.206-8.293-.533-.259c.576-1.182,1.231-2.451,2.063-3.992l.521.282C338.838,2859.705,338.186,2860.967,337.614,2862.141Zm4.2-7.9-.523-.278.017-.031a21.22,21.22,0,0,0,1.715-4.028l.568.169a21.807,21.807,0,0,1-1.764,4.144Zm1.813-8.66a10.176,10.176,0,0,0-1.048-4.192l.531-.263a10.756,10.756,0,0,1,1.109,4.435Z" transform="translate(-332.893 -2841.12)" fill="#65cefe"/>
      </g>
      <g id="Group_132" data-name="Group 132" transform="translate(11.187 61.788)">
        <path id="Path_313" data-name="Path 313" d="M406.212,3206.165c-.624-.512-1.234-1.032-1.811-1.547l.394-.442c.572.509,1.175,1.024,1.793,1.531Z" transform="translate(-404.401 -3204.176)" fill="#65cefe"/>
      </g>
    </g>
    <g id="Group_134" data-name="Group 134" transform="translate(197.742 1934.113)">
      <path id="Path_314" data-name="Path 314" d="M222,2695.57l-.784,9.542-5.543-6.243-17.926-14.681L213.029,2689s7.526,3.656,7.872,4.139A19.767,19.767,0,0,1,222,2695.57Z" transform="translate(-197.742 -2684.189)" fill="#e0be2b"/>
      <path id="Path_315" data-name="Path 315" d="M230.118,2691.469l-32.376-7.281L222,2695.57Z" transform="translate(-197.742 -2684.188)" fill="#ffd933"/>
      <path id="Path_316" data-name="Path 316" d="M209.544,2702.636l9.979-4.979-21.781-13.469Z" transform="translate(-197.742 -2684.188)" fill="#ffd933"/>
    </g>
    <path id="Path_317" data-name="Path 317" d="M1213.906,2121.144a4.159,4.159,0,0,1,5.1-3.089,6.123,6.123,0,0,1,7.362-3.252,7.541,7.541,0,0,1,13.547,1.318,5.173,5.173,0,0,1,7.689,4.521c0,.17-.009.337-.025.5Z" transform="translate(-857.186 -266.693)" fill="#fff"/>
    <path id="Path_318" data-name="Path 318" d="M651.345,1952.461a2.977,2.977,0,0,1,3.649-2.21,4.381,4.381,0,0,1,5.268-2.327,5.4,5.4,0,0,1,9.694.943,3.7,3.7,0,0,1,5.5,3.235c0,.121-.006.241-.018.359Z" transform="translate(-382.637 -126.797)" fill="#fff"/>
    <path id="Path_319" data-name="Path 319" d="M1397.147,2609.872s-.507,5-4.45,5.343c3.943.346,4.45,5.343,4.45,5.343s.507-5,4.45-5.343C1397.654,2614.869,1397.147,2609.872,1397.147,2609.872Z" transform="translate(-1008.006 -687.386)" fill="#fff"/>
    <path id="Path_320" data-name="Path 320" d="M476.393,2373.821s-.507,5-4.45,5.343c3.943.345,4.45,5.343,4.45,5.343s.507-5,4.45-5.343C476.9,2378.818,476.393,2373.821,476.393,2373.821Z" transform="translate(-231.303 -488.265)" fill="#fff"/>
    <path id="Path_321" data-name="Path 321" d="M1471.951,2521.511s-.335,3.305-2.944,3.534c2.609.229,2.944,3.535,2.944,3.535s.335-3.306,2.944-3.535C1472.286,2524.816,1471.951,2521.511,1471.951,2521.511Z" transform="translate(-1072.377 -612.849)" fill="#fff"/>
    <path id="Path_322" data-name="Path 322" d="M537.54,2009.1s-.335,3.305-2.944,3.534c2.608.229,2.944,3.534,2.944,3.534s.335-3.305,2.944-3.534C537.875,2012.4,537.54,2009.1,537.54,2009.1Z" transform="translate(-284.154 -180.601)" fill="#fff"/>
    <path id="Path_323" data-name="Path 323" d="M1383.3,2617.067s-.15,1.479-1.317,1.582c1.167.1,1.317,1.581,1.317,1.581s.15-1.479,1.317-1.581C1383.446,2618.546,1383.3,2617.067,1383.3,2617.067Z" transform="translate(-998.965 -693.455)" fill="#fff"/>
    <path id="Path_324" data-name="Path 324" d="M515.669,2498.544s-.15,1.479-1.317,1.581c1.167.1,1.317,1.582,1.317,1.582s.15-1.479,1.317-1.582C515.819,2500.023,515.669,2498.544,515.669,2498.544Z" transform="translate(-267.077 -593.475)" fill="#fff"/>
  </g>
</svg>
