<svg xmlns="http://www.w3.org/2000/svg" width="276.435" height="288.977" viewBox="0 0 276.435 288.977">
  <g id="Group_83" data-name="Group 83" transform="translate(-640.037 -831)">
    <path id="Rectangle_28" data-name="Rectangle 28" d="M4.466,0h267.5a4.466,4.466,0,0,1,4.466,4.466v0a4.466,4.466,0,0,1-4.466,4.466H4.466A4.466,4.466,0,0,1,0,4.466v0A4.466,4.466,0,0,1,4.466,0Z" transform="translate(640.037 1111.045)" fill="#8282a8"/>
    <g id="Group_66" data-name="Group 66" transform="translate(642.334 831)">
      <path id="Path_185" data-name="Path 185" d="M136.1,0c75.169,0,136.1,56.7,136.1,126.635S211.274,253.269,136.1,253.269,0,196.573,0,126.635,60.936,0,136.1,0Z" transform="translate(0)" fill="#4361ee" opacity="0.584"/>
      <path id="Path_110" data-name="Path 110" d="M936.821,1054.061a119.623,119.623,0,0,0-20.275-66.53c-9.8,23.522-23.873,44.327-44.047,54.278-61.862,30.513-91.674-43.139-154.281,10.522-20.944,17.951-33.964,36.374-42.017,52.942,21.138,44.427,68.937,75.423,124.516,75.423C875.884,1180.7,936.821,1124,936.821,1054.061Z" transform="translate(-664.611 -927.427)" fill="#fbf3ff" opacity="0.25" style="mix-blend-mode: screen;isolation: isolate"/>
      <path id="Path_111" data-name="Path 111" d="M702.606,893.948q.639-1.512,1.234-2.97c-34.973,22.919-57.822,60.779-57.822,103.6,0,69.938,60.936,126.635,136.105,126.635,35.323,0,67.5-12.52,91.694-33.05-7.982-9.933-23.654-21.941-48.979-36.393C719.749,991.8,672.793,964.443,702.606,893.948Z" transform="translate(-646.018 -867.948)" fill="#b1b1de" opacity="0.28"/>
    </g>
    <g id="Group_82" data-name="Group 82" transform="translate(709.379 894.059)">
      <g id="Group_80" data-name="Group 80" transform="translate(0 0.188)">
        <path id="Path_167" data-name="Path 167" d="M749.058,1046.722s-16.645-8.506-18.9-12.729-10.821-20.1-10.821-20.1-1.546-16.317-4.785-16.317-6.565,9.722-4.312,15.353,8.523,27.483,14.717,32.269,22.508,14.653,22.508,14.653Z" transform="translate(-709.505 -997.575)" fill="#ffaf95"/>
        <g id="Group_79" data-name="Group 79" transform="translate(40.456 146.92)">
          <path id="Path_168" data-name="Path 168" d="M815.428,1391.531s-.563,11.544-.563,18.583,10.84,34.631,9.854,38.573,10.216,3.406,10.216,3.406.764-21.426-2.121-31.562,0-30.97,0-30.97Z" transform="translate(-814.865 -1385.966)" fill="#ffaf95"/>
          <path id="Path_169" data-name="Path 169" d="M887.149,1380.2s3.637,19.079,6.594,23.443,18.864,34.068,18.864,37.87,10,.7,10,.7-8.446-32.52-11.826-42.374a117.464,117.464,0,0,1-4.645-18.02Z" transform="translate(-859.393 -1380.201)" fill="#ffaf95"/>
        </g>
        <path id="Path_170" data-name="Path 170" d="M807.553,1302.782c-1.034,6.278-5.243,44.413-5.243,44.413s14.354,4.408,22.941,2.437c0,0-.242-30.661,1.73-30.661h.059a6.228,6.228,0,0,1,5.971,4.714c1.644,6.609,6.156,26.538,6.156,26.538s18.143-2.528,22.084-4.358c0,0-6.06-43.138-12.677-49.754l-7.938-7.125-28.933-3.73S808.285,1298.339,807.553,1302.782Z" transform="translate(-766.675 -1174.793)" fill="#4361ee"/>
        <path id="Path_171" data-name="Path 171" d="M795.665,1550.407h30.76s.634-11.122-1.477-13.233-1.549.267-5.068,1.612-5.81-1.9-7.418-3.506-.466,5.132-7.223,5.132S794.116,1547.31,795.665,1550.407Z" transform="translate(-762.389 -1328.661)" fill="#3e3d51"/>
        <path id="Path_172" data-name="Path 172" d="M939.572,1533.469c-1.567.456-6.335,4.817-7.742,9.322s-.845,6.053-.845,6.053,5.209,1.971,14.923.7,8.165-2.252,8.165-2.252-1.266-10-3.1-12.951S942.318,1532.67,939.572,1533.469Z" transform="translate(-845.873 -1327.098)" fill="#3e3d51"/>
        <path id="Path_173" data-name="Path 173" d="M936.644,1214.06c10.034,16.2,15.851,27.336,10.242,34.376-6.128,7.692-19.1,6.185-25.1,12.722a11.114,11.114,0,0,1-6.78-7.643l5.813-1.89c11.56-5.018,16.432-7.989,14.831-13.464s-7.248-12.785-7.248-12.785C931.008,1213.559,936.644,1214.06,936.644,1214.06Z" transform="translate(-836.098 -1130.933)" fill="#ffaf95"/>
        <path id="Path_174" data-name="Path 174" d="M858.9,1154.421s-7.69,11.357-13.7,11.564c-3.944-5.94-5.7-9.353-5.743-8.7-.043.736-.035,20.136-1.059,30.73-7.931,4.591-43.85,1.353-45.258-3.292s5.49-43.219,3.8-44.908-17.894-10.059-17.894-10.059,6.679-13.138,10.789-17.211c0,0,8.023,4.2,15.687,7.279,10.055,4.044,18.52,5.163,24.114,7.76C849.345,1136.733,850.825,1141.133,858.9,1154.421Z" transform="translate(-752.343 -1068.398)" fill="#fbf3ff"/>
        <path id="Path_175" data-name="Path 175" d="M866.983,1115.329v13.937s5.1,5.49,11.721,1.689l3.048-17.936Z" transform="translate(-806.515 -1068.691)" fill="#ffaf95"/>
        <path id="Path_176" data-name="Path 176" d="M866.983,1122.352c4.217,1.063,9.428-.73,13.91-4.283l.859-5.05-14.769,2.31Z" transform="translate(-806.515 -1068.691)" fill="#ff7f4c" opacity="0.68" style="mix-blend-mode: multiply;isolation: isolate"/>
        <path id="Path_177" data-name="Path 177" d="M852.69,1052.466s-14.381,17.258-7.83,25.727,21.413,2.717,28.763-7.989S855.407,1044.477,852.69,1052.466Z" transform="translate(-791.833 -1030.002)" fill="#ffaf95"/>
        <path id="Path_178" data-name="Path 178" d="M878.916,1044.73s5.273.159,3.2,5.113-5.832,6.631-3.835,8.629c1.374,1.373.59,4.182-.034,5.8a4.006,4.006,0,0,0-.109,2.616l.035.114a4.225,4.225,0,0,0,4.4,2.979c4.839-.418,12.933-2.854,12.482-14.547,0,0,4.031-7.511.019-13.263s-7.049-5.273-7.049-5.273-1.438-5.433-5.913-6.711-17.577-5.913-19.015,1.278S868.05,1043.931,878.916,1044.73Z" transform="translate(-803.997 -1016.033)" fill="#011037"/>
        <path id="Path_179" data-name="Path 179" d="M897.125,1094.009c.373-.191,5.688-2.656,6.472.36.727,2.8-.282,7.131-4.1,7.131S892.331,1096.466,897.125,1094.009Z" transform="translate(-823.624 -1056.285)" fill="#ffaf95"/>
        <path id="Path_180" data-name="Path 180" d="M826.425,1567.015s.132-2.309.075-5.024c-3.607,1.56-23.4,1.309-30.59,1.163a4.7,4.7,0,0,0-.245,3.86Z" transform="translate(-762.389 -1345.268)" fill="#fbf3ff"/>
        <path id="Path_181" data-name="Path 181" d="M945.907,1565.233c9.714-1.267,8.165-2.252,8.165-2.252s-.292-2.3-.8-5.024h0c-6.446,6.447-17.225,3.955-21.967,2.414-.723,3.054-.321,4.158-.321,4.158S936.194,1566.5,945.907,1565.233Z" transform="translate(-845.873 -1342.783)" fill="#fbf3ff"/>
      </g>
      <g id="Group_81" data-name="Group 81" transform="translate(4.541 0)">
        <path id="Path_182" data-name="Path 182" d="M722.475,1019.3H732.8a1.946,1.946,0,0,0,1.79-1.448l4.572-19.322a1.108,1.108,0,0,0-1.1-1.448H727.733a1.945,1.945,0,0,0-1.79,1.448l-4.572,19.322A1.108,1.108,0,0,0,722.475,1019.3Z" transform="translate(-721.33 -997.086)" fill="#3e3d51"/>
        <path id="Path_183" data-name="Path 183" d="M727.733,997.086h1.951a1.946,1.946,0,0,0-1.79,1.448l-4.572,19.322a1.108,1.108,0,0,0,1.1,1.448h-1.951a1.108,1.108,0,0,1-1.1-1.448l4.572-19.322A1.945,1.945,0,0,1,727.733,997.086Z" transform="translate(-721.33 -997.086)" fill="#8282a8"/>
      </g>
      <path id="Path_184" data-name="Path 184" d="M725.766,1008.4c2.714.228,3.558,6.626,3.129,8.225s-6.428,6.741-6.718,4.638S724.678,1009.291,725.766,1008.4Z" transform="translate(-717.298 -1004.059)" fill="#ffaf95"/>
    </g>
  </g>
</svg>
